<svg id="Layer_1" data-name="Layer 1" xmlns="http://www.w3.org/2000/svg" xmlns:xlink="http://www.w3.org/1999/xlink" width="8in" height="8in" viewBox="0 0 576 576"><defs><clipPath id="clip-path"><circle cx="288" cy="288" r="304" fill="none"/></clipPath><clipPath id="clip-path-2"><rect x="177.1" y="-23" width="25" height="39.18" rx="11" ry="11" fill="#697a93" stroke="#697a93" stroke-miterlimit="10" stroke-width="0.98"/></clipPath><clipPath id="clip-path-3"><rect x="427" y="-24" width="23.8" height="37.3" rx="10.5" ry="10.5" fill="#697a93" stroke="#697a93" stroke-miterlimit="10" stroke-width="0.98"/></clipPath><clipPath id="clip-path-4"><rect x="497.5" y="-0.5" width="23.8" height="37.3" rx="10.5" ry="10.5" fill="#697a93" stroke="#697a93" stroke-miterlimit="10" stroke-width="0.98"/></clipPath><clipPath id="clip-path-5"><rect x="270.7" y="-23.5" width="23.8" height="37.23" rx="10.5" ry="10.5" fill="#697a93" stroke="#697a93" stroke-miterlimit="10" stroke-width="0.98"/></clipPath><clipPath id="clip-path-6"><rect x="82.9" y="136.8" width="23.8" height="37.3" rx="10.5" ry="10.5" fill="#697a93" stroke="#697a93" stroke-miterlimit="10" stroke-width="0.98"/></clipPath><clipPath id="clip-path-7"><rect x="153.5" y="160.3" width="23.8" height="37.3" rx="10.5" ry="10.5" fill="#697a93" stroke="#697a93" stroke-miterlimit="10" stroke-width="0.98"/></clipPath><clipPath id="clip-path-8"><rect x="378.7" y="137.8" width="25" height="39.18" rx="11" ry="11" fill="#697a93" stroke="#697a93" stroke-miterlimit="10" stroke-width="0.98"/></clipPath><clipPath id="clip-path-9"><rect x="472.3" y="137.3" width="23.8" height="37.23" rx="10.5" ry="10.5" fill="#697a93" stroke="#697a93" stroke-miterlimit="10" stroke-width="0.98"/></clipPath><clipPath id="clip-path-10"><rect x="303.5" y="297.5" width="23.8" height="37.3" rx="10.5" ry="10.5" fill="#697a93"/></clipPath><clipPath id="clip-path-11"><rect x="374" y="321" width="23.8" height="37.3" rx="10.5" ry="10.5" fill="#697a93"/></clipPath><clipPath id="clip-path-12"><rect x="-5.2" y="459.4" width="25" height="39.18" rx="11" ry="11" fill="#697a93"/></clipPath><clipPath id="clip-path-13"><rect x="315.3" y="481.8" width="23.8" height="37.3" rx="10.5" ry="10.5" fill="none"/></clipPath><clipPath id="clip-path-14"><rect x="540.5" y="459.3" width="25" height="39.18" rx="11" ry="11" fill="#697a93" stroke="#697a93" stroke-miterlimit="10" stroke-width="0.98"/></clipPath></defs><title>Artboard 1</title><g clip-path="url(#clip-path)"><path d="M200.4,43.8a1,1,0,0,1-1,1H169.1a.9.9,0,0,1-1-1,1,1,0,0,1,1-1h20.8V1.7a1,1,0,0,1,1-1h8.4a1,1,0,0,1,1,1V43.4A.8.8,0,0,1,200.4,43.8Z" fill="#d3afb6"/><rect x="177.1" y="-23" width="25" height="39.18" rx="11" ry="11" fill="#697a93"/><g clip-path="url(#clip-path-2)"><line x1="179.8" y1="-24.1" x2="179.8" y2="16.6" fill="#697a93" stroke="#697a93" stroke-miterlimit="10" stroke-width="0.98"/><line x1="182.6" y1="-24.1" x2="182.6" y2="16.6" fill="#697a93" stroke="#697a93" stroke-miterlimit="10" stroke-width="0.98"/><line x1="185.4" y1="-24.1" x2="185.4" y2="16.6" fill="#697a93" stroke="#697a93" stroke-miterlimit="10" stroke-width="0.98"/><line x1="188.2" y1="-24.1" x2="188.2" y2="16.6" fill="#697a93" stroke="#697a93" stroke-miterlimit="10" stroke-width="0.98"/><line x1="191" y1="-24.1" x2="191" y2="16.6" fill="#697a93" stroke="#697a93" stroke-miterlimit="10" stroke-width="0.98"/><line x1="193.8" y1="-24.1" x2="193.8" y2="16.6" fill="#697a93" stroke="#697a93" stroke-miterlimit="10" stroke-width="0.98"/><line x1="196.5" y1="-24.1" x2="196.5" y2="16.6" fill="#697a93" stroke="#697a93" stroke-miterlimit="10" stroke-width="0.98"/><line x1="199.3" y1="-24.1" x2="199.3" y2="16.6" fill="#697a93" stroke="#697a93" stroke-miterlimit="10" stroke-width="0.98"/></g><rect x="177.1" y="-23" width="25" height="39.18" rx="11" ry="11" fill="none" stroke="#697a93" stroke-miterlimit="10" stroke-width="0.98"/><rect x="177.1" y="-23" width="25" height="39.18" rx="11" ry="11" fill="#697a93" stroke="#697a93" stroke-miterlimit="10" stroke-width="0.98"/><polygon points="184.5 2.7 186.3 6.4 192.8 6.4 194.7 2.7 184.5 2.7" fill="#e5cace"/><line x1="199" y1="44.8" x2="205.1" y2="98.2" fill="none" stroke="#697a93" stroke-miterlimit="10" stroke-width="1.2"/><line x1="186.3" y1="44.8" x2="181.7" y2="98.2" fill="none" stroke="#697a93" stroke-miterlimit="10" stroke-width="1.2"/><polygon points="189.6 3.6 180 -12.9 199.1 -12.9 189.6 3.6" fill="#f7edee"/><polyline points="160 36.9 155.3 96.6 157.1 96.9 167.5 40.4" fill="#4d5d6d"/><path d="M199.9,36.9a5.8,5.8,0,0,1-5.9,5.9H168.1L175,97.9l-1.8.3L160.5,39.3l-.5-2.4a6,6,0,0,1,5.9-5.9H194a6.2,6.2,0,0,1,4.2,1.7A5.9,5.9,0,0,1,199.9,36.9Z" fill="#3a4556"/><path d="M204.9,6.4H175.2L151.7,24.6h26.1l1.1,7h17.6l6.3-18.7,5.1,20.1-17.1,7,1.5,3.5,19.5-8.1.4-.2ZM162.5,20.9l13.3-10.3,1.5,10.3Z" fill="#e5cace"/><line x1="135.7" y1="37.5" x2="152.5" y2="101.7" fill="none" stroke="#697a93" stroke-miterlimit="10" stroke-width="1.2"/><line x1="44.1" y1="37.5" x2="27.4" y2="101.7" fill="none" stroke="#697a93" stroke-miterlimit="10" stroke-width="1.2"/><line x1="52" y1="37.5" x2="52.5" y2="93.5" fill="none" stroke="#697a93" stroke-miterlimit="10" stroke-width="1.2"/><line x1="127.8" y1="37.5" x2="128.2" y2="93.5" fill="none" stroke="#697a93" stroke-miterlimit="10" stroke-width="1.2"/><rect x="72.3" y="-5.4" width="55.5" height="33.15" rx="4.4" ry="4.4" fill="#e5cace"/><polygon points="106 35.4 93.9 35.4 95.7 20 104.1 20 106 35.4" fill="#d3afb6"/><circle cx="99.8" cy="6.7" r="2.5" fill="#f7edee"/><rect x="38.6" y="35.4" width="102.9" height="2.17" fill="#697a93"/><rect x="43.5" y="30.9" width="11" height="4.49" rx="2.2" ry="2.2" fill="#d3afb6"/><path d="M59.1,8h1.4V5.3A4.6,4.6,0,0,0,56,.7H53a4.8,4.8,0,0,0-4.8,4.8V30.9h1.4V5.7s.1-3.8,3.4-3.8h3.2s2.9,0,2.9,3.4Z" fill="#f7edee"/><polygon points="66 19.4 53.7 19.4 58 10.9 61.5 10.9 66 19.4" fill="#d3afb6"/><rect x="180" y="11.2" width="7.4" height="14.83" rx="1.2" ry="1.2" fill="#3a4556"/><circle cx="183.7" cy="16.1" r="1.2" fill="#697a93"/><rect x="57.2" y="9.5" width="5.1" height="1.39" fill="#e5cace"/><rect x="58.5" y="7.8" width="2.5" height="1.74" fill="#d3afb6"/><line x1="518.3" y1="63.8" x2="524.1" y2="114.1" fill="none" stroke="#697a93" stroke-miterlimit="10" stroke-width="1.14"/><line x1="506.4" y1="63.8" x2="502" y2="114.1" fill="none" stroke="#697a93" stroke-miterlimit="10" stroke-width="1.14"/><rect x="427" y="-24" width="23.8" height="37.3" rx="10.5" ry="10.5" fill="#697a93"/><g clip-path="url(#clip-path-3)"><line x1="429.6" y1="-25.1" x2="429.6" y2="13.7" fill="#697a93" stroke="#697a93" stroke-miterlimit="10" stroke-width="0.98"/><line x1="432.2" y1="-25.1" x2="432.2" y2="13.7" fill="#697a93" stroke="#697a93" stroke-miterlimit="10" stroke-width="0.98"/><line x1="434.9" y1="-25.1" x2="434.9" y2="13.7" fill="#697a93" stroke="#697a93" stroke-miterlimit="10" stroke-width="0.98"/><line x1="437.5" y1="-25.1" x2="437.5" y2="13.7" fill="#697a93" stroke="#697a93" stroke-miterlimit="10" stroke-width="0.98"/><line x1="440.2" y1="-25.1" x2="440.2" y2="13.7" fill="#697a93" stroke="#697a93" stroke-miterlimit="10" stroke-width="0.98"/><line x1="442.9" y1="-25.1" x2="442.9" y2="13.7" fill="#697a93" stroke="#697a93" stroke-miterlimit="10" stroke-width="0.98"/><line x1="445.5" y1="-25.1" x2="445.5" y2="13.7" fill="#697a93" stroke="#697a93" stroke-miterlimit="10" stroke-width="0.98"/><line x1="448.2" y1="-25.1" x2="448.2" y2="13.7" fill="#697a93" stroke="#697a93" stroke-miterlimit="10" stroke-width="0.98"/></g><rect x="427" y="-24" width="23.8" height="37.3" rx="10.5" ry="10.5" fill="none" stroke="#697a93" stroke-miterlimit="10" stroke-width="0.98"/><rect x="427" y="-24" width="23.8" height="37.3" rx="10.5" ry="10.5" fill="#697a93" stroke="#697a93" stroke-miterlimit="10" stroke-width="0.98"/><polygon points="443.7 -0.1 441.9 3.4 435.8 3.4 434 -0.1 443.7 -0.1" fill="#fff" stroke="#f0f0f0" stroke-miterlimit="10" stroke-width="1.63"/><path d="M453.5,72v40h-1.7l-2.4-39.8L440.3,45v0l-2,16.8L434.1,112h-1.6l-1.2-42.8h0L428.6,36V34.4c0-5.8,5.4-10.5,12.2-10.5s6.3,4.7,6.3,10.5c0,2.2.3,2.3.1,4l2.9.6,3.5,32.9Z" fill="#3a4556"/><rect x="497.5" y="-0.5" width="23.8" height="37.3" rx="10.5" ry="10.5" fill="#697a93"/><g clip-path="url(#clip-path-4)"><line x1="500.1" y1="-1.6" x2="500.1" y2="37.2" fill="#697a93" stroke="#697a93" stroke-miterlimit="10" stroke-width="0.98"/><line x1="502.8" y1="-1.6" x2="502.8" y2="37.2" fill="#697a93" stroke="#697a93" stroke-miterlimit="10" stroke-width="0.98"/><line x1="505.4" y1="-1.6" x2="505.4" y2="37.2" fill="#697a93" stroke="#697a93" stroke-miterlimit="10" stroke-width="0.98"/><line x1="508.1" y1="-1.6" x2="508.1" y2="37.2" fill="#697a93" stroke="#697a93" stroke-miterlimit="10" stroke-width="0.98"/><line x1="510.8" y1="-1.6" x2="510.8" y2="37.2" fill="#697a93" stroke="#697a93" stroke-miterlimit="10" stroke-width="0.98"/><line x1="513.4" y1="-1.6" x2="513.4" y2="37.2" fill="#697a93" stroke="#697a93" stroke-miterlimit="10" stroke-width="0.98"/><line x1="516.1" y1="-1.6" x2="516.1" y2="37.2" fill="#697a93" stroke="#697a93" stroke-miterlimit="10" stroke-width="0.98"/><line x1="518.7" y1="-1.6" x2="518.7" y2="37.2" fill="#697a93" stroke="#697a93" stroke-miterlimit="10" stroke-width="0.98"/></g><rect x="497.5" y="-0.5" width="23.8" height="37.3" rx="10.5" ry="10.5" fill="none" stroke="#697a93" stroke-miterlimit="10" stroke-width="0.98"/><rect x="497.5" y="-0.5" width="23.8" height="37.3" rx="10.5" ry="10.5" fill="#697a93" stroke="#697a93" stroke-miterlimit="10" stroke-width="0.98"/><polygon points="424.4 3.4 452.4 3.4 452.4 3.4 470.2 17.1 489.5 17.1 489.5 20.6 469.1 20.6 469 20.6 451.9 7.3 448.9 27.1 432.3 27.1 426.4 9.4 421.6 28.3 437.7 35 436.3 38.2 417.9 30.6 417.5 30.4 424.4 3.4 424.4 3.4" fill="#e5cace"/><rect x="441.3" y="18.5" width="1.3" height="10.13" fill="#fff"/><rect x="443.9" y="18.5" width="1.3" height="10.13" fill="#fff"/><rect x="446.6" y="18.5" width="1.3" height="10.13" fill="#fff"/><path d="M443.2,17.6a1.2,1.2,0,0,1-1.2,1.2,1.2,1.2,0,0,1-1.3-1.2c0-.2.1-.4.1-.6h0l1.2-2,1.1,2h0A1.3,1.3,0,0,1,443.2,17.6Z" fill="#fff"/><path d="M445.8,17.6a1.2,1.2,0,0,1-1.2,1.2,1.2,1.2,0,0,1-1.3-1.2,1.4,1.4,0,0,1,.2-.6h0l1.1-2,1.1,2h0A1.3,1.3,0,0,1,445.8,17.6Z" fill="#fff"/><path d="M448.5,17.6a1.2,1.2,0,0,1-1.3,1.2,1.2,1.2,0,0,1-1.2-1.2,1.3,1.3,0,0,1,.1-.6h0l1.1-2,1.1,2h0A1.4,1.4,0,0,1,448.5,17.6Z" fill="#fff"/><polygon points="440.3 26 448.9 27.1 450 39 440.3 39 440.3 26" fill="#f7edee" stroke="#697a93" stroke-miterlimit="10" stroke-width="0.95"/><polygon points="449.2 25.5 431.8 25.5 432.3 27.1 448.9 27.1 449.2 25.5" fill="#f0f0f0" stroke="#f0f0f0" stroke-miterlimit="10" stroke-width="1.63"/><path d="M519.6,62.9a.9.9,0,0,1-.9.9H490.1a.9.9,0,0,1-.9-.9.9.9,0,0,1,.9-1h19.6V23.2a.9.9,0,0,1,1-1h7.9a1,1,0,0,1,1,1V62.9Z" fill="#d3afb6"/><polygon points="504.6 24.1 506.4 27.6 512.5 27.6 514.3 24.1 504.6 24.1" fill="#e5cace"/><polyline points="481.6 56.3 477.2 112.6 478.8 112.9 488.6 59.6" fill="#4d5d6d"/><path d="M519.2,56.4a5.6,5.6,0,0,1-5.6,5.5H489.2l6.5,52-1.7.2L482,58.6l-.4-2.2a5.6,5.6,0,0,1,5.5-5.6h26.5a5.5,5.5,0,0,1,5.6,5.6Z" fill="#3a4556"/><path d="M497.9,41.2l1.5,10.1H516l5.9-17.7,4.8,19-16.1,6.6,1.4,3.2,18.4-7.6.4-.2-6.9-27h-28L477.2,42.1l5.7,2.3,16.8,7.3,1.3-3.2-17.1-7.3h0l12.5-9.7,1.5,9.7m0,0" fill="#e5cace"/><polygon points="438.9 1.3 429.8 -14.5 448 -14.5 438.9 1.3" fill="#f7edee"/><polygon points="509.4 24.8 500.3 9 518.5 9 509.4 24.8" fill="#f7edee"/><rect x="493.2" y="12.9" width="1.3" height="10.13" transform="matrix(0.19, 0.98, -0.98, 0.19, 417.71, -470.28)" fill="#fff"/><path d="M500,18.1a1.3,1.3,0,0,1-1.5-1,1.2,1.2,0,0,1,1-1.4h.6l2.1.7-1.7,1.5h0Z" fill="#fff"/><rect x="342.4" y="51.9" height="44.57" fill="#fff" stroke="#697a93" stroke-miterlimit="10" stroke-width="1.14"/><line x1="345.9" y1="51.9" x2="361.7" y2="112.2" fill="none" stroke="#697a93" stroke-miterlimit="10" stroke-width="1.14"/><line x1="338.9" y1="51.9" x2="323.2" y2="112.2" fill="none" stroke="#697a93" stroke-miterlimit="10" stroke-width="1.14"/><polygon points="356.4 91.3 328.5 91.3 328.5 91.3 356.4 91.3 356.4 91.3" fill="none" stroke="#697a93" stroke-miterlimit="10" stroke-width="1.14"/><rect x="323.2" y="-4.9" width="39.3" height="55.05" fill="#f7edee" stroke="#f7edee" stroke-miterlimit="10" stroke-width="1.62"/><rect x="318" y="50.2" width="49.8" height="1.75" fill="#e5cace"/><rect x="270.7" y="-23.5" width="23.8" height="37.23" rx="10.5" ry="10.5" fill="#697a93"/><g clip-path="url(#clip-path-5)"><line x1="273.3" y1="-24.6" x2="273.3" y2="14.2" fill="#697a93" stroke="#697a93" stroke-miterlimit="10" stroke-width="0.98"/><line x1="275.9" y1="-24.6" x2="275.9" y2="14.2" fill="#697a93" stroke="#697a93" stroke-miterlimit="10" stroke-width="0.98"/><line x1="278.6" y1="-24.6" x2="278.6" y2="14.2" fill="#697a93" stroke="#697a93" stroke-miterlimit="10" stroke-width="0.98"/><line x1="281.2" y1="-24.6" x2="281.2" y2="14.2" fill="#697a93" stroke="#697a93" stroke-miterlimit="10" stroke-width="0.98"/><line x1="283.9" y1="-24.6" x2="283.9" y2="14.2" fill="#697a93" stroke="#697a93" stroke-miterlimit="10" stroke-width="0.98"/><line x1="286.6" y1="-24.6" x2="286.6" y2="14.2" fill="#697a93" stroke="#697a93" stroke-miterlimit="10" stroke-width="0.98"/><line x1="289.2" y1="-24.6" x2="289.2" y2="14.2" fill="#697a93" stroke="#697a93" stroke-miterlimit="10" stroke-width="0.98"/><line x1="291.9" y1="-24.6" x2="291.9" y2="14.2" fill="#697a93" stroke="#697a93" stroke-miterlimit="10" stroke-width="0.98"/></g><rect x="270.7" y="-23.5" width="23.8" height="37.23" rx="10.5" ry="10.5" fill="none" stroke="#697a93" stroke-miterlimit="10" stroke-width="0.98"/><rect x="270.7" y="-23.5" width="23.8" height="37.23" rx="10.5" ry="10.5" fill="#697a93" stroke="#697a93" stroke-miterlimit="10" stroke-width="0.98"/><polygon points="282.6 1.8 273.5 -13.9 291.7 -13.9 282.6 1.8" fill="#f7edee"/><polygon points="287.4 0.4 285.6 3.9 279.5 3.9 277.8 0.4 287.4 0.4" fill="#e5cace"/><polygon points="297.2 72.3 297.1 72.3 297.1 72.3 297.2 72.3" fill="#fff" stroke="#000" stroke-miterlimit="10" stroke-width="0.44"/><path d="M297.1,72.3v39.9h-1.6l-2.4-39.7L284,45.4v0l-2,16.7-4,50.1h-1.7L275,69.5h.1l-2.8-33.1V34.8c0-5.8,5.5-10.5,12.2-10.5s6.3,4.7,6.3,10.5c0,2.2.3,2.3.1,4l2.9.6,3.4,32.8Z" fill="#3a4556"/><circle cx="342.7" cy="6.3" r="6.5" fill="#e5cace"/><polygon points="333.1 6.3 324 22.1 342.3 22.1 333.1 6.3" fill="#3a4556"/><polygon points="352.4 6.3 343.3 22.1 361.5 22.1 352.4 6.3" fill="#3a4556"/><polygon points="342.9 4.6 333.8 20.3 352 20.3 342.9 4.6" fill="#3a4556"/><rect x="331.6" y="21.9" width="22.5" height="23.67" fill="#e5cace"/><rect x="331.6" y="20.4" width="22.5" height="1.49" fill="#697a93"/><rect x="331.6" y="19" width="22.5" height="1.49" fill="#3a4556"/><rect x="331.6" y="17.5" width="22.5" height="1.49" fill="#697a93"/><polygon points="352.1 13.8 333.7 13.8 331.6 17.5 354.1 17.5 352.1 13.8" fill="#f7edee"/><rect x="333.6" y="24.1" width="3" height="4.5" fill="#697a93"/><rect x="341.3" y="24.1" width="3" height="4.5" fill="#697a93"/><rect x="348.9" y="24.1" width="3" height="4.5" fill="#697a93"/><rect x="333.6" y="30.8" width="3" height="4.5" fill="#697a93"/><rect x="341.3" y="30.8" width="3" height="4.5" fill="#697a93"/><rect x="348.9" y="30.8" width="3" height="4.5" fill="#697a93"/><rect x="337.7" y="38" width="1.9" height="7.58" fill="#697a93"/><rect x="345.8" y="38" width="1.9" height="7.58" fill="#697a93"/><rect x="331.6" y="36.9" width="22.5" height="1" fill="#3a4556"/><rect x="339.7" y="38" width="3.1" height="7.58" fill="#3a4556"/><rect x="342.7" y="38" width="3.1" height="7.58" fill="#3a4556"/><polygon points="268.2 3.9 296.1 3.9 296.1 3.9 313.9 17.6 333 17.5 333.1 21 312.7 21.1 312.6 21.1 295.5 7.8 292.6 27.5 276 27.5 270.2 9.9 265.4 28.8 281.4 35.4 280 38.6 261.7 31 261.3 30.8 268.2 3.9 268.2 3.9" fill="#e5cace"/><rect x="332.6" y="2.6" width="6.1" height="0.69" rx="0.3" ry="0.3" fill="#697a93"/><rect x="284.9" y="18.9" width="1.3" height="10.11" fill="#fff"/><rect x="287.5" y="18.9" width="1.3" height="10.11" fill="#fff"/><rect x="290.1" y="18.9" width="1.3" height="10.11" fill="#fff"/><path d="M286.8,18a1.3,1.3,0,0,1-1.3,1.3,1.3,1.3,0,0,1-1.2-1.3.9.9,0,0,1,.1-.5h0l1.1-2,1.2,2h0C286.7,17.7,286.8,17.8,286.8,18Z" fill="#fff"/><path d="M289.4,18a1.2,1.2,0,0,1-1.2,1.3,1.3,1.3,0,0,1-1.3-1.3c0-.2.1-.3.2-.5h0l1.1-2,1.1,2h0A.9.9,0,0,1,289.4,18Z" fill="#fff"/><path d="M292,18a1.2,1.2,0,0,1-1.2,1.3,1.3,1.3,0,0,1-1.3-1.3c0-.2.1-.3.2-.5h0l1.1-2,1.1,2h0A.9.9,0,0,1,292,18Z" fill="#fff"/><rect x="335.1" y="4.2" width="6.1" height="0.69" rx="0.3" ry="0.3" fill="#697a93"/><polygon points="335.1 9.9 333.1 11.4 331.1 9.9 333.1 6.3 335.1 9.9" fill="#697a93"/><polygon points="350.4 9.9 352.3 11.4 354.4 9.9 352.4 6.3 350.4 9.9" fill="#697a93"/><polygon points="284 26.4 292.6 27.5 293.7 39.4 284 39.4 284 26.4" fill="#f7edee" stroke="#697a93" stroke-miterlimit="10" stroke-width="0.95"/><polygon points="345.4 9 342.8 10.8 340.3 9 342.9 4.6 345.4 9" fill="#697a93"/><polygon points="292.6 25.7 275.3 25.7 275.8 27.2 292.4 27.2 292.6 25.7" fill="#f0f0f0" stroke="#f0f0f0" stroke-miterlimit="10" stroke-width="1.62"/><line x1="174.3" y1="224.6" x2="180" y2="274.9" fill="none" stroke="#697a93" stroke-miterlimit="10" stroke-width="1.14"/><line x1="162.4" y1="224.6" x2="158" y2="274.9" fill="none" stroke="#697a93" stroke-miterlimit="10" stroke-width="1.14"/><rect x="82.9" y="136.8" width="23.8" height="37.3" rx="10.5" ry="10.5" fill="#697a93"/><g clip-path="url(#clip-path-6)"><line x1="85.5" y1="135.6" x2="85.5" y2="174.5" fill="#697a93" stroke="#697a93" stroke-miterlimit="10" stroke-width="0.98"/><line x1="88.2" y1="135.6" x2="88.2" y2="174.5" fill="#697a93" stroke="#697a93" stroke-miterlimit="10" stroke-width="0.98"/><line x1="90.8" y1="135.6" x2="90.8" y2="174.5" fill="#697a93" stroke="#697a93" stroke-miterlimit="10" stroke-width="0.98"/><line x1="93.5" y1="135.6" x2="93.5" y2="174.5" fill="#697a93" stroke="#697a93" stroke-miterlimit="10" stroke-width="0.98"/><line x1="96.2" y1="135.6" x2="96.2" y2="174.5" fill="#697a93" stroke="#697a93" stroke-miterlimit="10" stroke-width="0.98"/><line x1="98.8" y1="135.6" x2="98.8" y2="174.5" fill="#697a93" stroke="#697a93" stroke-miterlimit="10" stroke-width="0.98"/><line x1="101.5" y1="135.6" x2="101.5" y2="174.5" fill="#697a93" stroke="#697a93" stroke-miterlimit="10" stroke-width="0.98"/><line x1="104.1" y1="135.6" x2="104.1" y2="174.5" fill="#697a93" stroke="#697a93" stroke-miterlimit="10" stroke-width="0.98"/></g><rect x="82.9" y="136.8" width="23.8" height="37.3" rx="10.5" ry="10.5" fill="none" stroke="#697a93" stroke-miterlimit="10" stroke-width="0.98"/><rect x="82.9" y="136.8" width="23.8" height="37.3" rx="10.5" ry="10.5" fill="#697a93" stroke="#697a93" stroke-miterlimit="10" stroke-width="0.98"/><polygon points="99.7 160.7 97.9 164.2 91.8 164.2 90 160.7 99.7 160.7" fill="#fff" stroke="#f0f0f0" stroke-miterlimit="10" stroke-width="1.63"/><path d="M109.4,232.7v40.1h-1.6L105.4,233l-9.1-27.2v0l-2,16.7-4.1,50.3H88.5L87.3,230h0l-2.8-33.3v-1.5c0-5.8,5.5-10.5,12.3-10.5s6.3,4.7,6.3,10.5c0,2.2.3,2.3.1,4l2.9.6,3.4,32.9Z" fill="#3a4556"/><rect x="153.5" y="160.3" width="23.8" height="37.3" rx="10.5" ry="10.5" fill="#697a93"/><g clip-path="url(#clip-path-7)"><line x1="156.1" y1="159.1" x2="156.1" y2="198" fill="#697a93" stroke="#697a93" stroke-miterlimit="10" stroke-width="0.98"/><line x1="158.8" y1="159.1" x2="158.8" y2="198" fill="#697a93" stroke="#697a93" stroke-miterlimit="10" stroke-width="0.98"/><line x1="161.4" y1="159.1" x2="161.4" y2="198" fill="#697a93" stroke="#697a93" stroke-miterlimit="10" stroke-width="0.98"/><line x1="164.1" y1="159.1" x2="164.1" y2="198" fill="#697a93" stroke="#697a93" stroke-miterlimit="10" stroke-width="0.98"/><line x1="166.7" y1="159.1" x2="166.7" y2="198" fill="#697a93" stroke="#697a93" stroke-miterlimit="10" stroke-width="0.98"/><line x1="169.4" y1="159.1" x2="169.4" y2="198" fill="#697a93" stroke="#697a93" stroke-miterlimit="10" stroke-width="0.98"/><line x1="172" y1="159.1" x2="172" y2="198" fill="#697a93" stroke="#697a93" stroke-miterlimit="10" stroke-width="0.98"/><line x1="174.7" y1="159.1" x2="174.7" y2="198" fill="#697a93" stroke="#697a93" stroke-miterlimit="10" stroke-width="0.98"/></g><rect x="153.5" y="160.3" width="23.8" height="37.3" rx="10.5" ry="10.5" fill="none" stroke="#697a93" stroke-miterlimit="10" stroke-width="0.98"/><rect x="153.5" y="160.3" width="23.8" height="37.3" rx="10.5" ry="10.5" fill="#697a93" stroke="#697a93" stroke-miterlimit="10" stroke-width="0.98"/><polygon points="80.4 164.2 108.4 164.2 108.4 164.2 126.2 177.9 145.4 177.9 145.5 181.4 125 181.4 125 181.4 107.8 168.1 104.9 187.8 88.3 187.8 82.4 170.2 77.6 189.1 93.6 195.8 92.3 199 73.9 191.4 73.5 191.2 80.4 164.2 80.4 164.2" fill="#e5cace"/><rect x="97.3" y="179.3" width="1.3" height="10.13" fill="#fff"/><rect x="99.9" y="179.3" width="1.3" height="10.13" fill="#fff"/><rect x="102.5" y="179.3" width="1.3" height="10.13" fill="#fff"/><path d="M99.2,178.4a1.2,1.2,0,0,1-1.3,1.2,1.2,1.2,0,0,1-1.2-1.2,1.3,1.3,0,0,1,.1-.6h0l1.1-2,1.2,2h0C99.1,178,99.2,178.2,99.2,178.4Z" fill="#fff"/><path d="M101.8,178.4a1.2,1.2,0,0,1-1.2,1.2,1.2,1.2,0,0,1-1.3-1.2c0-.2.1-.4.1-.6h0l1.2-2,1.1,2h0A1.3,1.3,0,0,1,101.8,178.4Z" fill="#fff"/><path d="M104.4,178.4a1.2,1.2,0,0,1-1.2,1.2,1.2,1.2,0,0,1-1.3-1.2,1.4,1.4,0,0,1,.2-.6h0l1.1-2,1.1,2h0A1.3,1.3,0,0,1,104.4,178.4Z" fill="#fff"/><polygon points="96.2 186.8 104.9 187.8 106 199.8 96.2 199.8 96.2 186.8" fill="#f7edee"/><polygon points="105.1 186.3 87.7 186.3 88.3 187.8 104.9 187.8 105.1 186.3" fill="#f0f0f0" stroke="#f0f0f0" stroke-miterlimit="10" stroke-width="1.63"/><path d="M175.6,223.6a.9.9,0,0,1-.9,1H146.1a1,1,0,0,1-1-1,1,1,0,0,1,1-.9h19.6V183.9a.9.9,0,0,1,.9-.9h8a.9.9,0,0,1,.9.9v39.4A.4.4,0,0,1,175.6,223.6Z" fill="#d3afb6"/><polygon points="160.6 184.9 162.3 188.4 168.5 188.4 170.2 184.9 160.6 184.9" fill="#e5cace"/><polyline points="137.5 217.1 133.1 273.4 134.8 273.7 144.5 220.4" fill="#4d5d6d"/><path d="M175.2,217.1a5.6,5.6,0,0,1-5.6,5.6H145.1l6.5,52-1.6.2-12-55.5-.5-2.3a5.6,5.6,0,0,1,5.6-5.5h26.5a5.5,5.5,0,0,1,3.9,1.6A5.2,5.2,0,0,1,175.2,217.1Z" fill="#3a4556"/><path d="M153.8,202l1.5,10.1H172l5.9-17.7,4.8,18.9L166.6,220l1.3,3.2,18.4-7.6.5-.2-6.9-27H151.8l-18.7,14.5,5.7,2.3,16.8,7.3,1.4-3.2L139.9,202h0l12.5-9.7,1.4,9.7m0,0" fill="#e5cace"/><polygon points="94.8 162.1 85.7 146.3 103.9 146.3 94.8 162.1" fill="#f7edee"/><polygon points="165.4 185.6 156.3 169.8 174.5 169.8 165.4 185.6" fill="#f7edee"/><rect x="149.2" y="173.7" width="1.3" height="10.13" transform="translate(296.9 -2.3) rotate(79)" fill="#fff"/><path d="M155.9,178.9a1.2,1.2,0,0,1-1.4-1,1.2,1.2,0,0,1,1-1.5h.5l2.2.7-1.8,1.5h0Z" fill="#fff"/><line x1="1.9" y1="212.7" x2="17.6" y2="273" fill="none" stroke="#697a93" stroke-miterlimit="10" stroke-width="1.14"/><polygon points="12.4 252 -15.6 252 -15.6 252 12.4 252 12.4 252" fill="none" stroke="#697a93" stroke-miterlimit="10" stroke-width="1.14"/><rect x="-20.8" y="155.9" width="39.3" height="55.05" fill="#f7edee" stroke="#f7edee" stroke-miterlimit="10" stroke-width="1.62"/><rect x="-26.1" y="211" width="49.8" height="1.75" fill="#e5cace"/><rect x="9.8" y="152.4" width="1.7" height="3.5" fill="#e5cace"/><circle cx="-1.3" cy="167.1" r="6.5" fill="#e5cace"/><polygon points="8.3 167.1 -0.8 182.9 17.5 182.9 8.3 167.1" fill="#3a4556"/><polygon points="-1.1 165.3 -10.3 181.1 8 181.1 -1.1 165.3" fill="#3a4556"/><rect x="-12.4" y="182.6" width="22.5" height="23.67" fill="#e5cace"/><rect x="-12.4" y="181.2" width="22.5" height="1.49" fill="#697a93"/><rect x="-12.4" y="179.8" width="22.5" height="1.49" fill="#3a4556"/><rect x="-12.4" y="178.3" width="22.5" height="1.49" fill="#697a93"/><polygon points="8.1 174.6 -10.4 174.6 -12.4 178.3 10.1 178.3 8.1 174.6" fill="#f7edee"/><rect x="-2.8" y="184.8" width="3" height="4.5" fill="#697a93"/><rect x="4.9" y="184.8" width="3" height="4.5" fill="#697a93"/><rect x="-2.8" y="191.5" width="3" height="4.5" fill="#697a93"/><rect x="4.9" y="191.5" width="3" height="4.5" fill="#697a93"/><rect x="1.7" y="198.7" width="1.9" height="7.58" fill="#697a93"/><rect x="-12.4" y="197.7" width="22.5" height="1" fill="#3a4556"/><rect x="-1.3" y="198.7" width="3.1" height="7.58" fill="#3a4556"/><polygon points="6.3 170.7 8.3 172.2 10.4 170.7 8.3 167.1 6.3 170.7" fill="#697a93"/><polygon points="1.4 169.8 -1.2 171.6 -3.7 169.8 -1.1 165.3 1.4 169.8" fill="#697a93"/><path d="M402,204.6a1,1,0,0,1-1,1H370.7a1.1,1.1,0,0,1-1-1,1,1,0,0,1,1-1h20.8V162.5a1,1,0,0,1,1-1h8.4a.9.9,0,0,1,1,1v41.7A.6.6,0,0,1,402,204.6Z" fill="#d3afb6"/><rect x="378.7" y="137.8" width="25" height="39.18" rx="11" ry="11" fill="#697a93"/><g clip-path="url(#clip-path-8)"><line x1="381.4" y1="136.6" x2="381.4" y2="177.4" fill="#697a93" stroke="#697a93" stroke-miterlimit="10" stroke-width="0.98"/><line x1="384.2" y1="136.6" x2="384.2" y2="177.4" fill="#697a93" stroke="#697a93" stroke-miterlimit="10" stroke-width="0.98"/><line x1="387" y1="136.6" x2="387" y2="177.4" fill="#697a93" stroke="#697a93" stroke-miterlimit="10" stroke-width="0.98"/><line x1="389.8" y1="136.6" x2="389.8" y2="177.4" fill="#697a93" stroke="#697a93" stroke-miterlimit="10" stroke-width="0.98"/><line x1="392.6" y1="136.6" x2="392.6" y2="177.4" fill="#697a93" stroke="#697a93" stroke-miterlimit="10" stroke-width="0.98"/><line x1="395.4" y1="136.6" x2="395.4" y2="177.4" fill="#697a93" stroke="#697a93" stroke-miterlimit="10" stroke-width="0.98"/><line x1="398.2" y1="136.6" x2="398.2" y2="177.4" fill="#697a93" stroke="#697a93" stroke-miterlimit="10" stroke-width="0.98"/><line x1="401" y1="136.6" x2="401" y2="177.4" fill="#697a93" stroke="#697a93" stroke-miterlimit="10" stroke-width="0.98"/></g><rect x="378.7" y="137.8" width="25" height="39.18" rx="11" ry="11" fill="none" stroke="#697a93" stroke-miterlimit="10" stroke-width="0.98"/><rect x="378.7" y="137.8" width="25" height="39.18" rx="11" ry="11" fill="#697a93" stroke="#697a93" stroke-miterlimit="10" stroke-width="0.98"/><polygon points="386.1 163.5 387.9 167.2 394.4 167.2 396.3 163.5 386.1 163.5" fill="#e5cace"/><line x1="400.6" y1="205.6" x2="406.7" y2="258.9" fill="none" stroke="#697a93" stroke-miterlimit="10" stroke-width="1.2"/><line x1="388" y1="205.6" x2="383.3" y2="258.9" fill="none" stroke="#697a93" stroke-miterlimit="10" stroke-width="1.2"/><polygon points="391.2 164.4 381.6 147.8 400.8 147.8 391.2 164.4" fill="#f7edee"/><polyline points="361.6 197.7 357 257.3 358.7 257.6 369.1 201.2" fill="#4d5d6d"/><path d="M401.6,197.7a6,6,0,0,1-6,5.9H369.7l6.9,55.1-1.7.2-12.7-58.8-.6-2.4a5.9,5.9,0,0,1,6-5.9h28a5.6,5.6,0,0,1,4.2,1.7A6,6,0,0,1,401.6,197.7Z" fill="#3a4556"/><path d="M406.5,167.2H376.8l-23.5,18.2h26.2l1,7h17.7l6.2-18.7,5.1,20.1-17,7,1.4,3.4,19.5-8.1.5-.2Zm-42.3,14.5,13.2-10.3,1.5,10.2Z" fill="#e5cace"/><line x1="337.4" y1="198.3" x2="354.1" y2="262.4" fill="none" stroke="#697a93" stroke-miterlimit="10" stroke-width="1.2"/><line x1="245.7" y1="198.3" x2="229" y2="262.4" fill="none" stroke="#697a93" stroke-miterlimit="10" stroke-width="1.2"/><line x1="253.7" y1="198.3" x2="254.1" y2="254.3" fill="none" stroke="#697a93" stroke-miterlimit="10" stroke-width="1.2"/><line x1="329.4" y1="198.3" x2="329.9" y2="254.3" fill="none" stroke="#697a93" stroke-miterlimit="10" stroke-width="1.2"/><rect x="274" y="155.4" width="55.5" height="33.15" rx="4.4" ry="4.4" fill="#e5cace"/><polygon points="307.6 196.1 295.5 196.1 297.4 180.8 305.7 180.8 307.6 196.1" fill="#d3afb6"/><circle cx="301.4" cy="167.5" r="2.5" fill="#f7edee"/><rect x="240.2" y="196.1" width="102.9" height="2.17" fill="#697a93"/><rect x="245.2" y="191.6" width="11" height="4.49" rx="2.2" ry="2.2" fill="#d3afb6"/><path d="M260.7,168.8h1.4V166a4.5,4.5,0,0,0-4.5-4.5h-3a4.8,4.8,0,0,0-4.8,4.8v25.3h1.5V166.5s.1-3.8,3.3-3.8h3.2a3,3,0,0,1,2.9,3.3Z" fill="#f7edee"/><polygon points="267.6 180.1 255.4 180.1 259.6 171.7 263.1 171.7 267.6 180.1" fill="#d3afb6"/><rect x="381.6" y="172" width="7.4" height="14.83" rx="1.2" ry="1.2" fill="#3a4556"/><circle cx="385.3" cy="176.9" r="1.2" fill="#697a93"/><rect x="258.8" y="170.3" width="5.1" height="1.39" fill="#e5cace"/><rect x="260.1" y="168.5" width="2.5" height="1.74" fill="#d3afb6"/><rect x="544.1" y="212.7" height="44.57" fill="#fff" stroke="#697a93" stroke-miterlimit="10" stroke-width="1.14"/><line x1="547.6" y1="212.7" x2="563.3" y2="273" fill="none" stroke="#697a93" stroke-miterlimit="10" stroke-width="1.14"/><line x1="540.6" y1="212.7" x2="524.8" y2="273" fill="none" stroke="#697a93" stroke-miterlimit="10" stroke-width="1.14"/><polygon points="558 252 530.1 252 530.1 252 558 252 558 252" fill="none" stroke="#697a93" stroke-miterlimit="10" stroke-width="1.14"/><rect x="524.8" y="155.9" width="39.3" height="55.05" fill="#f7edee" stroke="#f7edee" stroke-miterlimit="10" stroke-width="1.62"/><rect x="519.6" y="211" width="49.8" height="1.75" fill="#e5cace"/><rect x="472.3" y="137.3" width="23.8" height="37.23" rx="10.5" ry="10.5" fill="#697a93"/><g clip-path="url(#clip-path-9)"><line x1="474.9" y1="136.2" x2="474.9" y2="174.9" fill="#697a93" stroke="#697a93" stroke-miterlimit="10" stroke-width="0.98"/><line x1="477.6" y1="136.2" x2="477.6" y2="174.9" fill="#697a93" stroke="#697a93" stroke-miterlimit="10" stroke-width="0.98"/><line x1="480.2" y1="136.2" x2="480.2" y2="174.9" fill="#697a93" stroke="#697a93" stroke-miterlimit="10" stroke-width="0.98"/><line x1="482.9" y1="136.2" x2="482.9" y2="174.9" fill="#697a93" stroke="#697a93" stroke-miterlimit="10" stroke-width="0.98"/><line x1="485.5" y1="136.2" x2="485.5" y2="174.9" fill="#697a93" stroke="#697a93" stroke-miterlimit="10" stroke-width="0.98"/><line x1="488.2" y1="136.2" x2="488.2" y2="174.9" fill="#697a93" stroke="#697a93" stroke-miterlimit="10" stroke-width="0.98"/><line x1="490.8" y1="136.2" x2="490.8" y2="174.9" fill="#697a93" stroke="#697a93" stroke-miterlimit="10" stroke-width="0.98"/><line x1="493.5" y1="136.2" x2="493.5" y2="174.9" fill="#697a93" stroke="#697a93" stroke-miterlimit="10" stroke-width="0.98"/></g><rect x="472.3" y="137.3" width="23.8" height="37.23" rx="10.5" ry="10.5" fill="none" stroke="#697a93" stroke-miterlimit="10" stroke-width="0.98"/><rect x="472.3" y="137.3" width="23.8" height="37.23" rx="10.5" ry="10.5" fill="#697a93" stroke="#697a93" stroke-miterlimit="10" stroke-width="0.98"/><polygon points="484.2 162.6 475.1 146.8 493.3 146.8 484.2 162.6" fill="#f7edee"/><rect x="531.8" y="152.4" width="1.7" height="3.5" fill="#e5cace"/><rect x="555.4" y="152.4" width="1.7" height="3.5" fill="#e5cace"/><polygon points="489 161.1 487.3 164.6 481.1 164.6 479.4 161.1 489 161.1" fill="#e5cace"/><polygon points="498.8 233.1 498.8 233.1 498.8 233 498.8 233.1" fill="#fff" stroke="#000" stroke-miterlimit="10" stroke-width="0.44"/><path d="M498.8,233v39.9h-1.7l-2.4-39.6-9.1-27.2v0l-1.9,16.7-4.1,50.1h-1.6l-1.2-42.6h0l-2.8-33.1v-1.5c0-5.8,5.5-10.5,12.2-10.5s6.4,4.7,6.4,10.5c0,2.1.3,2.3,0,3.9l2.9.6,3.5,32.8Z" fill="#3a4556"/><circle cx="544.4" cy="167.1" r="6.5" fill="#e5cace"/><polygon points="534.8 167.1 525.7 182.9 543.9 182.9 534.8 167.1" fill="#3a4556"/><polygon points="554 167.1 544.9 182.9 563.1 182.9 554 167.1" fill="#3a4556"/><polygon points="544.5 165.3 535.4 181.1 553.6 181.1 544.5 165.3" fill="#3a4556"/><rect x="533.3" y="182.6" width="22.5" height="23.67" fill="#e5cace"/><rect x="533.3" y="181.1" width="22.5" height="1.49" fill="#697a93"/><rect x="533.3" y="179.8" width="22.5" height="1.49" fill="#3a4556"/><rect x="533.3" y="178.3" width="22.5" height="1.49" fill="#697a93"/><polygon points="553.7 174.6 535.3 174.6 533.3 178.3 555.8 178.3 553.7 174.6" fill="#f7edee"/><rect x="535.3" y="184.8" width="3" height="4.5" fill="#697a93"/><rect x="542.9" y="184.8" width="3" height="4.5" fill="#697a93"/><rect x="550.6" y="184.8" width="3" height="4.5" fill="#697a93"/><rect x="535.3" y="191.5" width="3" height="4.5" fill="#697a93"/><rect x="542.9" y="191.5" width="3" height="4.5" fill="#697a93"/><rect x="550.6" y="191.5" width="3" height="4.5" fill="#697a93"/><rect x="539.4" y="198.7" width="1.9" height="7.58" fill="#697a93"/><rect x="547.4" y="198.7" width="1.9" height="7.58" fill="#697a93"/><rect x="533.3" y="197.7" width="22.5" height="1" fill="#3a4556"/><rect x="541.3" y="198.7" width="3.1" height="7.58" fill="#3a4556"/><rect x="544.3" y="198.7" width="3.1" height="7.58" fill="#3a4556"/><polygon points="469.8 164.6 497.7 164.6 497.7 164.6 515.5 178.4 534.7 178.3 534.7 181.8 514.3 181.8 514.3 181.8 497.2 168.6 494.3 188.2 477.6 188.2 471.8 170.6 467 189.5 483 196.1 481.7 199.4 463.3 191.8 462.9 191.6 469.8 164.6 469.8 164.6" fill="#e5cace"/><rect x="534.2" y="163.4" width="6.1" height="0.69" rx="0.3" ry="0.3" fill="#697a93"/><rect x="486.5" y="179.7" width="1.3" height="10.11" fill="#fff"/><rect x="489.1" y="179.7" width="1.3" height="10.11" fill="#fff"/><rect x="491.8" y="179.7" width="1.3" height="10.11" fill="#fff"/><path d="M488.4,178.8a1.2,1.2,0,0,1-1.2,1.3,1.3,1.3,0,0,1-1.3-1.3.8.8,0,0,1,.2-.5h0l1.1-2.1,1.1,2.1h0A.7.7,0,0,1,488.4,178.8Z" fill="#fff"/><path d="M491,178.8a1.2,1.2,0,0,1-1.2,1.3,1.3,1.3,0,0,1-1.3-1.3.8.8,0,0,1,.2-.5h0l1.1-2.1,1.1,2.1h0A.7.7,0,0,1,491,178.8Z" fill="#fff"/><path d="M493.7,178.8a1.3,1.3,0,0,1-1.3,1.3,1.2,1.2,0,0,1-1.2-1.3.7.7,0,0,1,.1-.5h0l1.1-2.1,1.1,2.1h0A.8.8,0,0,1,493.7,178.8Z" fill="#fff"/><rect x="536.8" y="165" width="6.1" height="0.69" rx="0.3" ry="0.3" fill="#697a93"/><polygon points="536.8 170.7 534.7 172.1 532.7 170.7 534.8 167.1 536.8 170.7" fill="#697a93"/><polygon points="552 170.7 554 172.1 556 170.7 554 167.1 552 170.7" fill="#697a93"/><polygon points="485.6 187.2 494.3 188.2 495.3 200.1 485.6 200.1 485.6 187.2" fill="#f7edee" stroke="#697a93" stroke-miterlimit="10" stroke-width="0.95"/><polygon points="547 169.7 544.4 171.6 542 169.7 544.5 165.3 547 169.7" fill="#697a93"/><polygon points="494.3 186.4 476.9 186.4 477.4 188 494 188 494.3 186.4" fill="#f0f0f0" stroke="#f0f0f0" stroke-miterlimit="10" stroke-width="1.62"/><path d="M76.9,365.4a1,1,0,0,1-1,1H45.6a1.1,1.1,0,0,1-1-1,1,1,0,0,1,1-1H66.4V323.3a1,1,0,0,1,1-1h8.4a.9.9,0,0,1,1,1V365C76.9,365.1,76.9,365.2,76.9,365.4Z" fill="#d3afb6"/><rect x="53.6" y="298.6" width="25" height="39.18" rx="11" ry="11" fill="#697a93"/><polygon points="61 324.3 62.8 328 69.3 328 71.2 324.3 61 324.3" fill="#e5cace"/><line x1="75.5" y1="366.4" x2="81.6" y2="419.7" fill="none" stroke="#697a93" stroke-miterlimit="10" stroke-width="1.2"/><line x1="62.9" y1="366.4" x2="58.2" y2="419.7" fill="none" stroke="#697a93" stroke-miterlimit="10" stroke-width="1.2"/><polygon points="66.1 325.2 56.5 308.6 75.7 308.6 66.1 325.2" fill="#f7edee"/><polyline points="36.5 358.5 31.9 418.1 33.6 418.4 44 361.9" fill="#4d5d6d"/><path d="M76.5,358.5a6,6,0,0,1-6,5.9H44.6l6.9,55.1-1.7.2L37.1,360.9l-.6-2.4a5.9,5.9,0,0,1,6-5.9h28a5.6,5.6,0,0,1,4.2,1.7A5.8,5.8,0,0,1,76.5,358.5Z" fill="#3a4556"/><path d="M81.4,328H51.7L28.2,346.2H54.4l1,7H73.1l6.2-18.7,5.1,20-17,7.1,1.4,3.4,19.5-8.1.5-.2ZM39.1,342.5l13.2-10.3,1.5,10.2Z" fill="#e5cace"/><line x1="12.3" y1="359.1" x2="29" y2="423.2" fill="none" stroke="#697a93" stroke-miterlimit="10" stroke-width="1.2"/><line x1="4.3" y1="359.1" x2="4.8" y2="415.1" fill="none" stroke="#697a93" stroke-miterlimit="10" stroke-width="1.2"/><rect x="-51.1" y="316.2" width="55.5" height="33.15" rx="4.4" ry="4.4" fill="#e5cace"/><rect x="-84.9" y="356.9" width="102.9" height="2.17" fill="#697a93"/><rect x="56.5" y="332.8" width="7.4" height="14.83" rx="1.2" ry="1.2" fill="#3a4556"/><circle cx="60.2" cy="337.7" r="1.2" fill="#697a93"/><line x1="394.8" y1="385.4" x2="400.6" y2="435.7" fill="none" stroke="#697a93" stroke-miterlimit="10" stroke-width="1.14"/><line x1="382.9" y1="385.4" x2="378.5" y2="435.7" fill="none" stroke="#697a93" stroke-miterlimit="10" stroke-width="1.14"/><rect x="303.5" y="297.5" width="23.8" height="37.3" rx="10.5" ry="10.5" fill="#697a93"/><rect x="303.5" y="297.5" width="23.8" height="37.3" rx="10.5" ry="10.5" fill="#697a93"/><polygon points="320.2 321.4 318.5 324.9 312.3 324.9 310.6 321.4 320.2 321.4" fill="#fff" stroke="#f0f0f0" stroke-miterlimit="10" stroke-width="1.63"/><path d="M330,393.5v40h-1.6l-2.5-39.7-9.1-27.2v0l-2,16.7-4,50.2H309l-1.2-42.7h.1l-2.8-33.2V356c0-5.8,5.5-10.6,12.2-10.6s6.4,4.8,6.4,10.6c0,2.1.3,2.3,0,3.9l3,.6,3.4,32.9Z" fill="#3a4556"/><rect x="374" y="321" width="23.8" height="37.3" rx="10.5" ry="10.5" fill="#697a93"/><rect x="374" y="321" width="23.8" height="37.3" rx="10.5" ry="10.5" fill="#697a93"/><polygon points="300.9 324.9 329 324.9 329 324.9 346.8 338.7 366 338.7 366 342.1 345.6 342.2 345.5 342.2 328.4 328.9 325.5 348.6 308.8 348.6 302.9 331 298.1 349.9 314.2 356.5 312.9 359.8 294.5 352.1 294 352 300.9 324.9 300.9 324.9" fill="#e5cace"/><rect x="317.8" y="340" width="1.3" height="10.13" fill="#fff"/><rect x="320.5" y="340" width="1.3" height="10.13" fill="#fff"/><rect x="323.1" y="340" width="1.3" height="10.13" fill="#fff"/><path d="M319.7,339.1a1.2,1.2,0,0,1-1.2,1.3,1.3,1.3,0,0,1-1.3-1.3c0-.2.1-.3.2-.5h0l1.1-2,1.1,2h0A.9.9,0,0,1,319.7,339.1Z" fill="#fff"/><path d="M322.4,339.1a1.3,1.3,0,0,1-1.3,1.3,1.2,1.2,0,0,1-1.2-1.3.9.9,0,0,1,.1-.5h0l1.1-2,1.1,2h0C322.3,338.8,322.4,338.9,322.4,339.1Z" fill="#fff"/><path d="M325,339.1a1.3,1.3,0,0,1-1.2,1.3,1.3,1.3,0,0,1-1.3-1.3.9.9,0,0,1,.1-.5h0l1.2-2,1.1,2h0A.9.9,0,0,1,325,339.1Z" fill="#fff"/><polygon points="316.8 347.6 325.5 348.6 326.6 360.5 316.8 360.5 316.8 347.6" fill="#f7edee" stroke="#697a93" stroke-miterlimit="10" stroke-width="0.95"/><polygon points="325.7 347.1 308.3 347.1 308.8 348.6 325.5 348.6 325.7 347.1" fill="#f0f0f0" stroke="#f0f0f0" stroke-miterlimit="10" stroke-width="1.63"/><path d="M396.2,384.4a1.1,1.1,0,0,1-1,1H366.6a1,1,0,0,1-.9-1,.9.9,0,0,1,.9-.9h19.6V344.7a1,1,0,0,1,1-.9h8a.9.9,0,0,1,.9.9v39.7Z" fill="#d3afb6"/><polygon points="381.1 345.7 382.9 349.2 389 349.2 390.8 345.7 381.1 345.7" fill="#e5cace"/><polyline points="358.1 377.9 353.7 434.2 355.3 434.4 365.1 381.2" fill="#4d5d6d"/><path d="M395.7,377.9a5.6,5.6,0,0,1-5.5,5.6H365.7l6.5,51.9-1.6.3-12-55.5-.5-2.3a5.6,5.6,0,0,1,5.6-5.6h26.5a5.6,5.6,0,0,1,3.9,1.7A5.5,5.5,0,0,1,395.7,377.9Z" fill="#3a4556"/><path d="M374.4,362.8l1.5,10h16.6l5.9-17.6,4.8,18.9-16,6.7,1.3,3.2,18.4-7.6.4-.2-6.9-27h-28l-18.7,14.4,5.7,2.3,16.8,7.3,1.4-3.1-17.1-7.3h0l12.5-9.7,1.4,9.7m0,0" fill="#e5cace"/><polygon points="315.4 322.9 306.3 307.1 324.5 307.1 315.4 322.9" fill="#f7edee"/><polygon points="386 346.4 376.9 330.6 395.1 330.6 386 346.4" fill="#f7edee"/><rect x="369.7" y="334.5" width="1.3" height="10.13" transform="translate(633.4 -88.6) rotate(79)" fill="#fff"/><path d="M376.5,339.7a1.4,1.4,0,0,1-1.5-1,1.3,1.3,0,0,1,1-1.5h.6l2.2.8-1.8,1.4h0Z" fill="#fff"/><rect x="219" y="373.5" height="44.57" fill="#fff" stroke="#697a93" stroke-miterlimit="10" stroke-width="1.14"/><line x1="222.5" y1="373.5" x2="238.2" y2="433.8" fill="none" stroke="#697a93" stroke-miterlimit="10" stroke-width="1.14"/><line x1="215.5" y1="373.5" x2="199.7" y2="433.8" fill="none" stroke="#697a93" stroke-miterlimit="10" stroke-width="1.14"/><polygon points="232.9 412.8 205 412.8 205 412.8 232.9 412.8 232.9 412.8" fill="none" stroke="#697a93" stroke-miterlimit="10" stroke-width="1.14"/><rect x="199.7" y="316.7" width="39.3" height="55.05" fill="#f7edee" stroke="#f7edee" stroke-miterlimit="10" stroke-width="1.62"/><rect x="194.5" y="371.7" width="49.8" height="1.75" fill="#e5cace"/><rect x="147.2" y="298.1" width="23.8" height="37.23" rx="10.5" ry="10.5" fill="#697a93"/><rect x="147.2" y="298.1" width="23.8" height="37.23" rx="10.5" ry="10.5" fill="none" stroke="#6a7a93" stroke-miterlimit="10"/><rect x="147.2" y="298.1" width="23.8" height="37.23" rx="10.5" ry="10.5" fill="none" stroke="#697a93" stroke-miterlimit="10" stroke-width="0.97"/><polygon points="159.1 323.4 150 307.6 168.2 307.6 159.1 323.4" fill="#f7edee"/><rect x="206.7" y="313.2" width="1.7" height="3.5" fill="#e5cace"/><rect x="230.3" y="313.2" width="1.7" height="3.5" fill="#e5cace"/><polygon points="163.9 321.9 162.2 325.4 156 325.4 154.3 321.9 163.9 321.9" fill="#e5cace"/><polygon points="173.7 393.9 173.7 393.9 173.7 393.8 173.7 393.9" fill="#fff" stroke="#000" stroke-miterlimit="10" stroke-width="0.44"/><path d="M173.7,393.8v39.9H172l-2.4-39.6-9.1-27.2v0l-1.9,16.7-4.1,50.1h-1.6l-1.3-42.6h.1l-2.8-33.1v-1.5c0-5.8,5.5-10.5,12.2-10.5s6.4,4.7,6.4,10.5c0,2.1.3,2.3,0,3.9l2.9.6,3.5,32.8Z" fill="#3a4556"/><circle cx="219.3" cy="327.9" r="6.5" fill="#e5cace"/><polygon points="209.7 327.9 200.6 343.7 218.8 343.7 209.7 327.9" fill="#3a4556"/><polygon points="228.9 327.9 219.8 343.7 238 343.7 228.9 327.9" fill="#3a4556"/><polygon points="219.4 326.1 210.3 341.9 228.5 341.9 219.4 326.1" fill="#3a4556"/><rect x="208.2" y="343.4" width="22.5" height="23.67" fill="#e5cace"/><rect x="208.2" y="341.9" width="22.5" height="1.49" fill="#697a93"/><rect x="208.2" y="340.6" width="22.5" height="1.49" fill="#3a4556"/><rect x="208.2" y="339.1" width="22.5" height="1.49" fill="#697a93"/><polygon points="228.6 335.4 210.2 335.4 208.2 339.1 230.7 339.1 228.6 335.4" fill="#f7edee"/><rect x="210.1" y="345.6" width="3" height="4.5" fill="#697a93"/><rect x="217.8" y="345.6" width="3" height="4.5" fill="#697a93"/><rect x="225.4" y="345.6" width="3" height="4.5" fill="#697a93"/><rect x="210.1" y="352.3" width="3" height="4.5" fill="#697a93"/><rect x="217.8" y="352.3" width="3" height="4.5" fill="#697a93"/><rect x="225.4" y="352.3" width="3" height="4.5" fill="#697a93"/><rect x="214.3" y="359.5" width="1.9" height="7.58" fill="#697a93"/><rect x="222.3" y="359.5" width="1.9" height="7.58" fill="#697a93"/><rect x="208.2" y="358.5" width="22.5" height="1" fill="#3a4556"/><rect x="216.2" y="359.5" width="3.1" height="7.58" fill="#3a4556"/><rect x="219.2" y="359.5" width="3.1" height="7.58" fill="#3a4556"/><polygon points="144.7 325.4 172.6 325.4 172.6 325.4 190.4 339.1 209.6 339.1 209.6 342.6 189.2 342.6 189.2 342.6 172.1 329.4 169.1 349 152.5 349 146.7 331.4 141.9 350.3 157.9 356.9 156.6 360.2 138.2 352.5 137.8 352.4 144.7 325.4 144.7 325.4" fill="#e5cace"/><rect x="209.1" y="324.2" width="6.1" height="0.69" rx="0.3" ry="0.3" fill="#697a93"/><rect x="161.4" y="340.5" width="1.3" height="10.11" fill="#fff"/><rect x="164" y="340.5" width="1.3" height="10.11" fill="#fff"/><rect x="166.7" y="340.5" width="1.3" height="10.11" fill="#fff"/><path d="M163.3,339.6a1.2,1.2,0,0,1-1.2,1.2,1.2,1.2,0,0,1-1.3-1.2c0-.2.1-.4.1-.6h0l1.2-2,1.1,2h0A1.3,1.3,0,0,1,163.3,339.6Z" fill="#fff"/><path d="M165.9,339.6a1.2,1.2,0,0,1-1.2,1.2,1.2,1.2,0,0,1-1.3-1.2,1.4,1.4,0,0,1,.2-.6h0l1.1-2,1.1,2h0A1.3,1.3,0,0,1,165.9,339.6Z" fill="#fff"/><path d="M168.6,339.6a1.2,1.2,0,0,1-1.3,1.2,1.2,1.2,0,0,1-1.2-1.2,1.3,1.3,0,0,1,.1-.6h0l1.1-2,1.1,2h0A1.4,1.4,0,0,1,168.6,339.6Z" fill="#fff"/><rect x="211.7" y="325.8" width="6.1" height="0.69" rx="0.3" ry="0.3" fill="#697a93"/><polygon points="211.7 331.4 209.6 332.9 207.6 331.4 209.7 327.9 211.7 331.4" fill="#697a93"/><polygon points="226.9 331.4 228.9 332.9 230.9 331.4 228.9 327.9 226.9 331.4" fill="#697a93"/><polygon points="160.5 348 169.1 349 170.2 360.9 160.5 360.9 160.5 348" fill="#f7edee" stroke="#697a93" stroke-miterlimit="10" stroke-width="0.95"/><polygon points="221.9 330.5 219.3 332.4 216.9 330.5 219.4 326.1 221.9 330.5" fill="#697a93"/><polygon points="169.2 347.2 151.8 347.2 152.3 348.8 168.9 348.8 169.2 347.2" fill="#f0f0f0" stroke="#f0f0f0" stroke-miterlimit="10" stroke-width="1.62"/><path d="M627.1,328H597.3l-23.4,18.1H600l1.1,7h17.6l6.3-18.7,5.1,20L613,361.5l1.4,3.4,19.5-8.1.5-.2Zm-42.4,14.4L598,332.1l1.5,10.3Z" fill="#e5cace"/><line x1="557.9" y1="359.1" x2="574.6" y2="423.2" fill="none" stroke="#697a93" stroke-miterlimit="10" stroke-width="1.2"/><line x1="466.3" y1="359.1" x2="449.6" y2="423.2" fill="none" stroke="#697a93" stroke-miterlimit="10" stroke-width="1.2"/><line x1="474.2" y1="359.1" x2="474.7" y2="415.1" fill="none" stroke="#697a93" stroke-miterlimit="10" stroke-width="1.2"/><line x1="549.9" y1="359.1" x2="550.4" y2="415.1" fill="none" stroke="#697a93" stroke-miterlimit="10" stroke-width="1.2"/><rect x="494.5" y="316.2" width="55.5" height="33.15" rx="4.4" ry="4.4" fill="#e5cace"/><polygon points="528.1 356.9 516.1 356.9 517.9 341.6 526.3 341.6 528.1 356.9" fill="#d3afb6"/><circle cx="521.9" cy="328.2" r="2.5" fill="#f7edee"/><rect x="460.8" y="356.9" width="102.9" height="2.17" fill="#697a93"/><rect x="465.7" y="352.4" width="11" height="4.49" rx="2.2" ry="2.2" fill="#d3afb6"/><path d="M481.3,329.6h1.4v-2.8a4.5,4.5,0,0,0-4.6-4.5h-2.9a4.7,4.7,0,0,0-4.8,4.7v25.4h1.4V327.3s.1-3.8,3.4-3.8h3.2s2.9-.1,2.9,3.3Z" fill="#f7edee"/><polygon points="488.2 340.9 475.9 340.9 480.2 332.4 483.6 332.4 488.2 340.9" fill="#d3afb6"/><rect x="479.3" y="331" width="5.1" height="1.39" fill="#e5cace"/><rect x="480.7" y="329.3" width="2.5" height="1.74" fill="#d3afb6"/><path d="M18.2,526.2a1,1,0,0,1-1,.9H-13.1a.9.9,0,0,1-1-.9.9.9,0,0,1,1-1H7.7V484a.9.9,0,0,1,1-.9h8.4a1,1,0,0,1,1,.9v41.8C18.1,525.9,18.2,526,18.2,526.2Z" fill="#d3afb6"/><rect x="-5.2" y="459.4" width="25" height="39.18" rx="11" ry="11" fill="#697a93"/><rect x="-5.2" y="459.4" width="25" height="39.18" rx="11" ry="11" fill="#697a93"/><polygon points="2.2 485.1 4.1 488.8 10.6 488.8 12.5 485.1 2.2 485.1" fill="#e5cace"/><line x1="16.7" y1="527.1" x2="22.9" y2="580.5" fill="none" stroke="#697a93" stroke-miterlimit="10" stroke-width="1.2"/><line x1="4.1" y1="527.1" x2="-0.5" y2="580.5" fill="none" stroke="#697a93" stroke-miterlimit="10" stroke-width="1.2"/><polygon points="7.4 486 -2.2 469.4 16.9 469.4 7.4 486" fill="#f7edee"/><path d="M17.7,519.2a5.9,5.9,0,0,1-5.9,6H-14.1l6.9,55.1-1.8.2-12.7-58.8-.5-2.5a6,6,0,0,1,5.9-5.9H11.8a6,6,0,0,1,4.2,1.8A5.5,5.5,0,0,1,17.7,519.2Z" fill="#3a4556"/><path d="M22.7,488.8H-7.1l-23.4,18.1H-4.4l1.1,7H14.3l6.3-18.8,5.1,20.1L8.6,522.3l1.4,3.4,19.5-8.1.5-.2Zm-42.4,14.4,13.3-10.3,1.5,10.3Z" fill="#e5cace"/><rect x="-2.2" y="493.6" width="7.4" height="14.83" rx="1.2" ry="1.2" fill="#3a4556"/><circle cx="1.4" cy="498.4" r="1.2" fill="#697a93"/><line x1="336.1" y1="546.1" x2="341.8" y2="596.4" fill="none" stroke="#697a93" stroke-miterlimit="10" stroke-width="1.14"/><line x1="324.2" y1="546.1" x2="319.8" y2="596.4" fill="none" stroke="#697a93" stroke-miterlimit="10" stroke-width="1.14"/><rect x="244.7" y="458.3" width="23.8" height="37.3" rx="10.5" ry="10.5" fill="#697a93"/><rect x="244.7" y="458.3" width="23.8" height="37.3" rx="10.5" ry="10.5" fill="none" stroke="#697a93" stroke-miterlimit="10" stroke-width="0.98"/><polygon points="261.5 482.2 259.7 485.7 253.6 485.7 251.8 482.2 261.5 482.2" fill="#fff" stroke="#f0f0f0" stroke-miterlimit="10" stroke-width="1.63"/><path d="M271.3,554.3v40h-1.7l-2.4-39.7-9.1-27.3v0l-2,16.8-4.1,50.2h-1.6l-1.2-42.7h0l-2.7-33.2-.2-1.5c0-5.9,5.5-10.6,12.3-10.6s6.3,4.7,6.3,10.6c0,2.1.3,2.2.1,3.9l2.9.6,3.5,32.9Z" fill="#3a4556"/><g clip-path="url(#clip-path-13)"><line x1="317.9" y1="480.7" x2="317.9" y2="519.5" fill="none" stroke="#697a93" stroke-miterlimit="10" stroke-width="0.95"/><line x1="320.6" y1="480.7" x2="320.6" y2="519.5" fill="none" stroke="#697a93" stroke-miterlimit="10" stroke-width="0.95"/><line x1="323.2" y1="480.7" x2="323.2" y2="519.5" fill="none" stroke="#697a93" stroke-miterlimit="10" stroke-width="0.95"/><line x1="325.9" y1="480.7" x2="325.9" y2="519.5" fill="none" stroke="#697a93" stroke-miterlimit="10" stroke-width="0.95"/><line x1="328.5" y1="480.7" x2="328.5" y2="519.5" fill="none" stroke="#697a93" stroke-miterlimit="10" stroke-width="0.95"/><line x1="331.2" y1="480.7" x2="331.2" y2="519.5" fill="none" stroke="#697a93" stroke-miterlimit="10" stroke-width="0.95"/><line x1="333.9" y1="480.7" x2="333.9" y2="519.5" fill="none" stroke="#697a93" stroke-miterlimit="10" stroke-width="0.95"/><line x1="336.5" y1="480.7" x2="336.5" y2="519.5" fill="none" stroke="#697a93" stroke-miterlimit="10" stroke-width="0.95"/></g><rect x="315.3" y="481.8" width="23.8" height="37.3" rx="10.5" ry="10.5" fill="#697a93" stroke="#697a93" stroke-miterlimit="10" stroke-width="0.98"/><polygon points="242.2 485.7 270.2 485.7 270.2 485.7 288 499.5 307.3 499.4 307.3 502.9 286.9 503 286.8 503 269.7 489.7 266.7 509.4 250.1 509.4 244.2 491.7 239.4 510.7 255.4 517.3 254.1 520.5 235.7 512.9 235.3 512.7 242.2 485.7 242.2 485.7" fill="#e5cace"/><rect x="259.1" y="500.8" width="1.3" height="10.13" fill="#fff"/><rect x="261.7" y="500.8" width="1.3" height="10.13" fill="#fff"/><rect x="264.3" y="500.8" width="1.3" height="10.13" fill="#fff"/><path d="M261,499.9a1.3,1.3,0,0,1-1.2,1.3,1.3,1.3,0,0,1-1.3-1.3.7.7,0,0,1,.1-.5h0l1.2-2,1.1,2h0A.7.7,0,0,1,261,499.9Z" fill="#fff"/><path d="M263.6,499.9a1.2,1.2,0,0,1-1.2,1.3,1.3,1.3,0,0,1-1.3-1.3.8.8,0,0,1,.2-.5h0l1.1-2,1.1,2h0A.7.7,0,0,1,263.6,499.9Z" fill="#fff"/><path d="M266.3,499.9a1.3,1.3,0,0,1-1.3,1.3,1.2,1.2,0,0,1-1.2-1.3.7.7,0,0,1,.1-.5h0l1.1-2,1.1,2h0A.8.8,0,0,1,266.3,499.9Z" fill="#fff"/><polygon points="258 508.4 266.7 509.4 267.8 521.3 258 521.3 258 508.4" fill="#f7edee" stroke="#697a93" stroke-miterlimit="10" stroke-width="0.95"/><polygon points="267 507.8 249.6 507.8 250.1 509.4 266.7 509.4 267 507.8" fill="#f0f0f0" stroke="#f0f0f0" stroke-miterlimit="10" stroke-width="1.63"/><path d="M337.4,545.2a.9.9,0,0,1-.9.9H307.9a.9.9,0,1,1,0-1.8h19.6V505.5a.9.9,0,0,1,.9-.9h8a1,1,0,0,1,1,.9v39.7Z" fill="#d3afb6"/><polygon points="322.4 506.4 324.1 509.9 330.3 509.9 332 506.4 322.4 506.4" fill="#e5cace"/><polyline points="299.3 538.7 294.9 594.9 296.6 595.2 306.4 542" fill="#4d5d6d"/><path d="M337,538.7a5.7,5.7,0,0,1-5.6,5.6H307l6.5,51.9-1.7.2-12-55.4-.5-2.3a5.7,5.7,0,0,1,5.6-5.6h26.5a5.8,5.8,0,0,1,4,1.6A5.6,5.6,0,0,1,337,538.7Z" fill="#3a4556"/><path d="M315.6,523.5l1.5,10.1h16.7l5.9-17.6,4.8,18.9-16.1,6.6,1.3,3.3,18.4-7.7.5-.2-6.9-27H313.6l-18.7,14.5,5.8,2.3,16.8,7.3,1.3-3.2-17.1-7.2h0l12.5-9.7,1.4,9.6m0,0" fill="#e5cace"/><polygon points="256.6 483.6 247.5 467.9 265.7 467.9 256.6 483.6" fill="#f7edee"/><polygon points="327.2 507.1 318.1 491.4 336.3 491.4 327.2 507.1" fill="#f7edee"/><rect x="311" y="495.3" width="1.3" height="10.13" transform="translate(743.7 99.3) rotate(79)" fill="#fff"/><path d="M317.7,500.4a1.2,1.2,0,0,1-1.4-.9,1.2,1.2,0,0,1,1-1.5c.2-.1.4,0,.5,0h0l2.2.7-1.7,1.5h0Z" fill="#fff"/><rect x="160.2" y="534.3" height="44.57" fill="#fff" stroke="#697a93" stroke-miterlimit="10" stroke-width="1.14"/><line x1="163.7" y1="534.3" x2="179.4" y2="594.6" fill="none" stroke="#697a93" stroke-miterlimit="10" stroke-width="1.14"/><line x1="156.7" y1="534.3" x2="141" y2="594.6" fill="none" stroke="#697a93" stroke-miterlimit="10" stroke-width="1.14"/><polygon points="174.2 573.6 146.2 573.6 146.2 573.6 174.2 573.6 174.2 573.6" fill="none" stroke="#697a93" stroke-miterlimit="10" stroke-width="1.14"/><rect x="141" y="477.5" width="39.3" height="55.05" fill="#f7edee" stroke="#f7edee" stroke-miterlimit="10" stroke-width="1.62"/><rect x="135.7" y="532.5" width="49.8" height="1.75" fill="#e5cace"/><rect x="88.5" y="458.9" width="23.8" height="37.23" rx="10.5" ry="10.5" fill="#697a93"/><rect x="88.5" y="458.9" width="23.8" height="37.23" rx="10.5" ry="10.5" fill="none" stroke="#697a93" stroke-miterlimit="10" stroke-width="0.97"/><polygon points="100.4 484.1 91.3 468.4 109.4 468.4 100.4 484.1" fill="#f7edee"/><rect x="148" y="474" width="1.7" height="3.5" fill="#e5cace"/><rect x="171.6" y="474" width="1.7" height="3.5" fill="#e5cace"/><polygon points="105.2 482.7 103.4 486.2 97.3 486.2 95.5 482.7 105.2 482.7" fill="#e5cace"/><polygon points="114.9 554.7 114.9 554.7 114.9 554.6 114.9 554.7" fill="#fff" stroke="#000" stroke-miterlimit="10" stroke-width="0.44"/><path d="M114.9,554.6v39.9h-1.6l-2.4-39.6-9.1-27.2v0l-2,16.7-4,50.1H94l-1.2-42.6h.1l-2.8-33.1v-1.5c0-5.8,5.4-10.6,12.2-10.6s6.3,4.8,6.3,10.6c0,2.1.3,2.2.1,3.9l2.9.6,3.4,32.8Z" fill="#3a4556"/><circle cx="160.5" cy="488.6" r="6.5" fill="#e5cace"/><polygon points="150.9 488.6 141.8 504.4 160 504.4 150.9 488.6" fill="#3a4556"/><polygon points="170.2 488.6 161.1 504.4 179.3 504.4 170.2 488.6" fill="#3a4556"/><polygon points="160.7 486.9 151.6 502.7 169.8 502.7 160.7 486.9" fill="#3a4556"/><rect x="149.4" y="504.2" width="22.5" height="23.67" fill="#e5cace"/><rect x="149.4" y="502.7" width="22.5" height="1.49" fill="#697a93"/><rect x="149.4" y="501.4" width="22.5" height="1.49" fill="#3a4556"/><rect x="149.4" y="499.9" width="22.5" height="1.49" fill="#697a93"/><polygon points="169.9 496.2 151.4 496.2 149.4 499.9 171.9 499.9 169.9 496.2" fill="#f7edee"/><rect x="151.4" y="506.4" width="3" height="4.5" fill="#697a93"/><rect x="159.1" y="506.4" width="3" height="4.5" fill="#697a93"/><rect x="166.7" y="506.4" width="3" height="4.5" fill="#697a93"/><rect x="151.4" y="513.1" width="3" height="4.5" fill="#697a93"/><rect x="159.1" y="513.1" width="3" height="4.5" fill="#697a93"/><rect x="166.7" y="513.1" width="3" height="4.5" fill="#697a93"/><rect x="155.5" y="520.3" width="1.9" height="7.58" fill="#697a93"/><rect x="163.5" y="520.3" width="1.9" height="7.58" fill="#697a93"/><rect x="149.4" y="519.3" width="22.5" height="1" fill="#3a4556"/><rect x="157.4" y="520.3" width="3.1" height="7.58" fill="#3a4556"/><rect x="160.5" y="520.3" width="3.1" height="7.58" fill="#3a4556"/><polygon points="85.9 486.2 113.9 486.2 113.9 486.2 131.6 499.9 150.8 499.9 150.8 503.3 130.5 503.4 130.4 503.4 113.3 490.1 110.4 509.8 93.8 509.8 87.9 492.2 83.2 511.1 99.2 517.7 97.8 520.9 79.5 513.3 79 513.1 85.9 486.2 85.9 486.2" fill="#e5cace"/><rect x="150.4" y="484.9" width="6.1" height="0.69" rx="0.3" ry="0.3" fill="#697a93"/><rect x="102.7" y="501.3" width="1.3" height="10.11" fill="#fff"/><rect x="105.3" y="501.3" width="1.3" height="10.11" fill="#fff"/><rect x="107.9" y="501.3" width="1.3" height="10.11" fill="#fff"/><path d="M104.6,500.4a1.2,1.2,0,0,1-1.3,1.2,1.2,1.2,0,0,1-1.2-1.2,1.3,1.3,0,0,1,.1-.6h0l1.1-2,1.1,2h0A1.4,1.4,0,0,1,104.6,500.4Z" fill="#fff"/><path d="M107.2,500.4a1.2,1.2,0,0,1-1.2,1.2,1.2,1.2,0,0,1-1.3-1.2,1.3,1.3,0,0,1,.1-.6h0l1.2-2,1.1,2h0A1.3,1.3,0,0,1,107.2,500.4Z" fill="#fff"/><path d="M109.8,500.4a1.2,1.2,0,0,1-1.2,1.2,1.2,1.2,0,0,1-1.3-1.2,1.4,1.4,0,0,1,.2-.6h0l1.1-2,1.1,2h0A1.3,1.3,0,0,1,109.8,500.4Z" fill="#fff"/><rect x="152.9" y="486.5" width="6.1" height="0.69" rx="0.3" ry="0.3" fill="#697a93"/><polygon points="152.9 492.2 150.8 493.7 148.9 492.2 150.9 488.6 152.9 492.2" fill="#697a93"/><polygon points="168.1 492.2 170.1 493.7 172.2 492.2 170.2 488.6 168.1 492.2" fill="#697a93"/><polygon points="101.7 508.8 110.4 509.8 111.5 521.7 101.7 521.7 101.7 508.8" fill="#f7edee" stroke="#697a93" stroke-miterlimit="10" stroke-width="0.95"/><polygon points="163.2 491.3 160.6 493.1 158.1 491.3 160.7 486.9 163.2 491.3" fill="#697a93"/><polygon points="110.4 508 93.1 508 93.6 509.6 110.2 509.6 110.4 508" fill="#f0f0f0" stroke="#f0f0f0" stroke-miterlimit="10" stroke-width="1.62"/><path d="M563.8,526.1a.9.9,0,0,1-1,1H532.5a1,1,0,0,1-1-1,1,1,0,0,1,1-.9h20.8V484a1.1,1.1,0,0,1,1-1h8.5a1.1,1.1,0,0,1,1,1v42.1Z" fill="#d3afb6"/><rect x="540.5" y="459.3" width="25" height="39.18" rx="11" ry="11" fill="#697a93"/><g clip-path="url(#clip-path-14)"><line x1="543.2" y1="458.2" x2="543.2" y2="499" fill="#697a93" stroke="#697a93" stroke-miterlimit="10" stroke-width="0.98"/><line x1="546" y1="458.2" x2="546" y2="499" fill="#697a93" stroke="#697a93" stroke-miterlimit="10" stroke-width="0.98"/><line x1="548.8" y1="458.2" x2="548.8" y2="499" fill="#697a93" stroke="#697a93" stroke-miterlimit="10" stroke-width="0.98"/><line x1="551.6" y1="458.2" x2="551.6" y2="499" fill="#697a93" stroke="#697a93" stroke-miterlimit="10" stroke-width="0.98"/><line x1="554.4" y1="458.2" x2="554.4" y2="499" fill="#697a93" stroke="#697a93" stroke-miterlimit="10" stroke-width="0.98"/><line x1="557.2" y1="458.2" x2="557.2" y2="499" fill="#697a93" stroke="#697a93" stroke-miterlimit="10" stroke-width="0.98"/><line x1="560" y1="458.2" x2="560" y2="499" fill="#697a93" stroke="#697a93" stroke-miterlimit="10" stroke-width="0.98"/><line x1="562.8" y1="458.2" x2="562.8" y2="499" fill="#697a93" stroke="#697a93" stroke-miterlimit="10" stroke-width="0.98"/></g><rect x="540.5" y="459.3" width="25" height="39.18" rx="11" ry="11" fill="none" stroke="#697a93" stroke-miterlimit="10" stroke-width="0.98"/><rect x="540.5" y="459.3" width="25" height="39.18" rx="11" ry="11" fill="#697a93" stroke="#697a93" stroke-miterlimit="10" stroke-width="0.98"/><polygon points="547.9 485 549.8 488.7 556.3 488.7 558.1 485 547.9 485" fill="#e5cace"/><polygon points="542.5 506.9 541.3 506.9 540.7 503.2 542.5 503.2 542.5 506.9" fill="#fff" stroke="#000" stroke-miterlimit="10" stroke-width="0.46"/><line x1="562.4" y1="527.1" x2="568.5" y2="580.5" fill="none" stroke="#697a93" stroke-miterlimit="10" stroke-width="1.2"/><line x1="549.8" y1="527.1" x2="545.1" y2="580.5" fill="none" stroke="#697a93" stroke-miterlimit="10" stroke-width="1.2"/><polygon points="553 486 543.5 469.4 562.6 469.4 553 486" fill="#f7edee"/><polyline points="523.5 519.2 518.8 578.9 520.5 579.2 530.9 522.7" fill="#4d5d6d"/><path d="M563.4,519.2a5.9,5.9,0,0,1-5.9,5.9h-26l6.9,55.1-1.7.3L524,521.6l-.5-2.4a5.9,5.9,0,0,1,5.9-5.9h28.1a5.9,5.9,0,0,1,4.1,1.7A6,6,0,0,1,563.4,519.2Z" fill="#3a4556"/><path d="M568.3,488.7H538.6l-23.5,18.2h26.2l1,6.9H560l6.2-18.7,5.1,20.1-17,7,1.4,3.5,19.5-8.1.5-.2ZM526,503.2l13.2-10.3,1.5,10.3Z" fill="#e5cace"/><line x1="499.2" y1="519.8" x2="515.9" y2="584" fill="none" stroke="#697a93" stroke-miterlimit="10" stroke-width="1.2"/><line x1="407.6" y1="519.8" x2="390.8" y2="584" fill="none" stroke="#697a93" stroke-miterlimit="10" stroke-width="1.2"/><line x1="415.5" y1="519.8" x2="415.9" y2="575.8" fill="none" stroke="#697a93" stroke-miterlimit="10" stroke-width="1.2"/><line x1="491.2" y1="519.8" x2="491.7" y2="575.8" fill="none" stroke="#697a93" stroke-miterlimit="10" stroke-width="1.2"/><rect x="435.8" y="476.9" width="55.5" height="33.15" rx="4.4" ry="4.4" fill="#e5cace"/><polygon points="469.4 517.7 457.3 517.7 459.2 502.3 467.5 502.3 469.4 517.7" fill="#d3afb6"/><circle cx="463.2" cy="489" r="2.5" fill="#f7edee"/><rect x="402" y="517.7" width="102.9" height="2.17" fill="#697a93"/><rect x="407" y="513.2" width="11" height="4.49" rx="2.2" ry="2.2" fill="#d3afb6"/><path d="M422.5,490.3H424v-2.8a4.7,4.7,0,0,0-4.6-4.6h-3a4.9,4.9,0,0,0-4.8,4.8v25.4h1.5V488.1s.1-3.8,3.3-3.8h3.2a3,3,0,0,1,3,3.3C422.6,491,422.5,490.3,422.5,490.3Z" fill="#f7edee"/><polygon points="429.4 501.7 417.2 501.7 421.4 493.2 424.9 493.2 429.4 501.7" fill="#d3afb6"/><rect x="543.4" y="493.5" width="7.4" height="14.83" rx="1.2" ry="1.2" fill="#3a4556"/><polyline points="526 506.9 545.4 506.9 545.4 503.2 526 503.2" fill="#e5cace"/><circle cx="547.1" cy="498.4" r="1.2" fill="#697a93"/><rect x="420.6" y="491.8" width="5.1" height="1.39" fill="#e5cace"/><rect x="421.9" y="490.1" width="2.5" height="1.74" fill="#d3afb6"/></g></svg>