<svg xmlns="http://www.w3.org/2000/svg" width="8in" height="8in" viewBox="0 0 576 576"><defs><clipPath id="a"><circle cx="288" cy="288" r="304" fill="none"/></clipPath><clipPath id="b"><rect width="25" height="39.18" x="177.1" y="-23" fill="#697a93" stroke="#697a93" stroke-miterlimit="10" stroke-width=".98" rx="11" ry="11"/></clipPath><clipPath id="c"><rect width="23.8" height="37.3" x="427" y="-24" fill="#697a93" stroke="#697a93" stroke-miterlimit="10" stroke-width=".98" rx="10.5" ry="10.5"/></clipPath><clipPath id="d"><rect width="23.8" height="37.3" x="497.5" y="-.5" fill="#697a93" stroke="#697a93" stroke-miterlimit="10" stroke-width=".98" rx="10.5" ry="10.5"/></clipPath><clipPath id="e"><rect width="23.8" height="37.23" x="270.7" y="-23.5" fill="#697a93" stroke="#697a93" stroke-miterlimit="10" stroke-width=".98" rx="10.5" ry="10.5"/></clipPath><clipPath id="f"><rect width="23.8" height="37.3" x="82.9" y="136.8" fill="#697a93" stroke="#697a93" stroke-miterlimit="10" stroke-width=".98" rx="10.5" ry="10.5"/></clipPath><clipPath id="g"><rect width="23.8" height="37.3" x="153.5" y="160.3" fill="#697a93" stroke="#697a93" stroke-miterlimit="10" stroke-width=".98" rx="10.5" ry="10.5"/></clipPath><clipPath id="h"><rect width="25" height="39.18" x="378.7" y="137.8" fill="#697a93" stroke="#697a93" stroke-miterlimit="10" stroke-width=".98" rx="11" ry="11"/></clipPath><clipPath id="i"><rect width="23.8" height="37.23" x="472.3" y="137.3" fill="#697a93" stroke="#697a93" stroke-miterlimit="10" stroke-width=".98" rx="10.5" ry="10.5"/></clipPath><clipPath id="j"><rect width="23.8" height="37.3" x="315.3" y="481.8" fill="none" rx="10.5" ry="10.5"/></clipPath><clipPath id="k"><rect width="25" height="39.18" x="540.5" y="459.3" fill="#697a93" stroke="#697a93" stroke-miterlimit="10" stroke-width=".98" rx="11" ry="11"/></clipPath></defs><g clip-path="url(#a)"><path fill="#d3afb6" d="M200.4 43.8a1 1 0 0 1-1 1h-30.3a.9.9 0 0 1-1-1 1 1 0 0 1 1-1h20.8V1.7a1 1 0 0 1 1-1h8.4a1 1 0 0 1 1 1v41.7a.8.8 0 0 1 .1.4z"/><rect width="25" height="39.18" x="177.1" y="-23" fill="#697a93" rx="11" ry="11"/><g fill="#697a93" stroke="#697a93" stroke-miterlimit="10" stroke-width=".98" clip-path="url(#b)"><path d="M179.8-24.1v40.7m2.8-40.7v40.7m2.8-40.7v40.7m2.8-40.7v40.7m2.8-40.7v40.7m2.8-40.7v40.7m2.7-40.7v40.7m2.8-40.7v40.7"/></g><rect width="25" height="39.18" x="177.1" y="-23" fill="none" stroke="#697a93" stroke-miterlimit="10" stroke-width=".98" rx="11" ry="11"/><rect width="25" height="39.18" x="177.1" y="-23" fill="#697a93" stroke="#697a93" stroke-miterlimit="10" stroke-width=".98" rx="11" ry="11"/><path fill="#e5cace" d="M184.5 2.7l1.8 3.7h6.5l1.9-3.7h-10.2z"/><path fill="none" stroke="#697a93" stroke-miterlimit="10" stroke-width="1.2" d="M199 44.8l6.1 53.4m-18.8-53.4l-4.6 53.4"/><path fill="#f7edee" d="M189.6 3.6L180-12.9h19.1l-9.5 16.5z"/><path fill="#4d5d6d" d="M160 36.9l-4.7 59.7 1.8.3 10.4-56.5"/><path fill="#3a4556" d="M199.9 36.9a5.8 5.8 0 0 1-5.9 5.9h-25.9l6.9 55.1-1.8.3-12.7-58.9-.5-2.4a6 6 0 0 1 5.9-5.9H194a6.2 6.2 0 0 1 4.2 1.7 5.9 5.9 0 0 1 1.7 4.2z"/><path fill="#e5cace" d="M204.9 6.4h-29.7l-23.5 18.2h26.1l1.1 7h17.6l6.3-18.7 5.1 20.1-17.1 7 1.5 3.5 19.5-8.1.4-.2zm-42.4 14.5l13.3-10.3 1.5 10.3z"/><path fill="none" stroke="#697a93" stroke-miterlimit="10" stroke-width="1.2" d="M135.7 37.5l16.8 64.2M44.1 37.5l-16.7 64.2M52 37.5l.5 56m75.3-56l.4 56"/><rect width="55.5" height="33.15" x="72.3" y="-5.4" fill="#e5cace" rx="4.4" ry="4.4"/><path fill="#d3afb6" d="M106 35.4H93.9L95.7 20h8.4l1.9 15.4z"/><circle cx="99.8" cy="6.7" r="2.5" fill="#f7edee"/><path fill="#697a93" d="M38.6 35.4h102.9v2.17H38.6z"/><rect width="11" height="4.49" x="43.5" y="30.9" fill="#d3afb6" rx="2.2" ry="2.2"/><path fill="#f7edee" d="M59.1 8h1.4V5.3A4.6 4.6 0 0 0 56 .7h-3a4.8 4.8 0 0 0-4.8 4.8v25.4h1.4V5.7s.1-3.8 3.4-3.8h3.2s2.9 0 2.9 3.4z"/><path fill="#d3afb6" d="M66 19.4H53.7l4.3-8.5h3.5l4.5 8.5z"/><rect width="7.4" height="14.83" x="180" y="11.2" fill="#3a4556" rx="1.2" ry="1.2"/><circle cx="183.7" cy="16.1" r="1.2" fill="#697a93"/><path fill="#e5cace" d="M57.2 9.5h5.1v1.39h-5.1z"/><path fill="#d3afb6" d="M58.5 7.8H61v1.74h-2.5z"/><path fill="none" stroke="#697a93" stroke-miterlimit="10" stroke-width="1.14" d="M518.3 63.8l5.8 50.3m-17.7-50.3l-4.4 50.3"/><rect width="23.8" height="37.3" x="427" y="-24" fill="#697a93" rx="10.5" ry="10.5"/><g fill="#697a93" stroke="#697a93" stroke-miterlimit="10" stroke-width=".98" clip-path="url(#c)"><path d="M429.6-25.1v38.8m2.6-38.8v38.8m2.7-38.8v38.8m2.6-38.8v38.8m2.7-38.8v38.8m2.7-38.8v38.8m2.6-38.8v38.8m2.7-38.8v38.8"/></g><rect width="23.8" height="37.3" x="427" y="-24" fill="none" stroke="#697a93" stroke-miterlimit="10" stroke-width=".98" rx="10.5" ry="10.5"/><rect width="23.8" height="37.3" x="427" y="-24" fill="#697a93" stroke="#697a93" stroke-miterlimit="10" stroke-width=".98" rx="10.5" ry="10.5"/><path fill="#fff" stroke="#f0f0f0" stroke-miterlimit="10" stroke-width="1.63" d="M443.7-.1l-1.8 3.5h-6.1L434-.1h9.7z"/><path fill="#3a4556" d="M453.5 72v40h-1.7l-2.4-39.8-9.1-27.2-2 16.8-4.2 50.2h-1.6l-1.2-42.8-2.7-33.2v-1.6c0-5.8 5.4-10.5 12.2-10.5s6.3 4.7 6.3 10.5c0 2.2.3 2.3.1 4l2.9.6 3.5 32.9z"/><rect width="23.8" height="37.3" x="497.5" y="-.5" fill="#697a93" rx="10.5" ry="10.5"/><g fill="#697a93" stroke="#697a93" stroke-miterlimit="10" stroke-width=".98" clip-path="url(#d)"><path d="M500.1-1.6v38.8m2.7-38.8v38.8m2.6-38.8v38.8m2.7-38.8v38.8m2.7-38.8v38.8m2.6-38.8v38.8m2.7-38.8v38.8m2.6-38.8v38.8"/></g><rect width="23.8" height="37.3" x="497.5" y="-.5" fill="none" stroke="#697a93" stroke-miterlimit="10" stroke-width=".98" rx="10.5" ry="10.5"/><rect width="23.8" height="37.3" x="497.5" y="-.5" fill="#697a93" stroke="#697a93" stroke-miterlimit="10" stroke-width=".98" rx="10.5" ry="10.5"/><path fill="#e5cace" d="M424.4 3.4h28l17.8 13.7h19.3v3.5H469L451.9 7.3l-3 19.8h-16.6l-5.9-17.7-4.8 18.9 16.1 6.7-1.4 3.2-18.4-7.6-.4-.2 6.9-27z"/><path fill="#fff" d="M441.3 18.5h1.3v10.13h-1.3zm2.6 0h1.3v10.13h-1.3zm2.7 0h1.3v10.13h-1.3z"/><path fill="#fff" d="M443.2 17.6a1.2 1.2 0 0 1-1.2 1.2 1.2 1.2 0 0 1-1.3-1.2c0-.2.1-.4.1-.6l1.2-2 1.1 2a1.3 1.3 0 0 1 .1.6zm2.6 0a1.2 1.2 0 0 1-1.2 1.2 1.2 1.2 0 0 1-1.3-1.2 1.4 1.4 0 0 1 .2-.6l1.1-2 1.1 2a1.3 1.3 0 0 1 .1.6zm2.7 0a1.2 1.2 0 0 1-1.3 1.2 1.2 1.2 0 0 1-1.2-1.2 1.3 1.3 0 0 1 .1-.6l1.1-2 1.1 2a1.4 1.4 0 0 1 .2.6z"/><path fill="#f7edee" stroke="#697a93" stroke-miterlimit="10" stroke-width=".95" d="M440.3 26l8.6 1.1L450 39h-9.7V26z"/><path fill="#f0f0f0" stroke="#f0f0f0" stroke-miterlimit="10" stroke-width="1.63" d="M449.2 25.5h-17.4l.5 1.6h16.6l.3-1.6z"/><path fill="#d3afb6" d="M519.6 62.9a.9.9 0 0 1-.9.9h-28.6a.9.9 0 0 1-.9-.9.9.9 0 0 1 .9-1h19.6V23.2a.9.9 0 0 1 1-1h7.9a1 1 0 0 1 1 1v39.7z"/><path fill="#e5cace" d="M504.6 24.1l1.8 3.5h6.1l1.8-3.5h-9.7z"/><path fill="#4d5d6d" d="M481.6 56.3l-4.4 56.3 1.6.3 9.8-53.3"/><path fill="#3a4556" d="M519.2 56.4a5.6 5.6 0 0 1-5.6 5.5h-24.4l6.5 52-1.7.2-12-55.5-.4-2.2a5.6 5.6 0 0 1 5.5-5.6h26.5a5.5 5.5 0 0 1 5.6 5.6z"/><path fill="#e5cace" d="M497.9 41.2l1.5 10.1H516l5.9-17.7 4.8 19-16.1 6.6 1.4 3.2 18.4-7.6.4-.2-6.9-27h-28l-18.7 14.5 5.7 2.3 16.8 7.3 1.3-3.2-17.1-7.3 12.5-9.7 1.5 9.7m0 0"/><path fill="#f7edee" d="M438.9 1.3l-9.1-15.8H448l-9.1 15.8zm70.5 23.5L500.3 9h18.2l-9.1 15.8z"/><path fill="#fff" d="M498.776 15.507l.247 1.274-9.927 1.925-.247-1.274z"/><path fill="#fff" d="M500 18.1a1.3 1.3 0 0 1-1.5-1 1.2 1.2 0 0 1 1-1.4h.6l2.1.7-1.7 1.5z"/><rect height="44.57" x="342.4" y="51.9" fill="#fff" stroke="#697a93" stroke-miterlimit="10" stroke-width="1.14"/><path fill="none" stroke="#697a93" stroke-miterlimit="10" stroke-width="1.14" d="M345.9 51.9l15.8 60.3m-22.8-60.3l-15.7 60.3m33.2-20.9h-27.9 27.9z"/><path fill="#f7edee" stroke="#e5cace" stroke-miterlimit="10" stroke-width="1.62" d="M323.2-4.9h39.3v55.05h-39.3z"/><path fill="#e5cace" d="M318 50.2h49.8v1.75H318z"/><rect width="23.8" height="37.23" x="270.7" y="-23.5" fill="#697a93" rx="10.5" ry="10.5"/><g fill="#697a93" stroke="#697a93" stroke-miterlimit="10" stroke-width=".98" clip-path="url(#e)"><path d="M273.3-24.6v38.8m2.6-38.8v38.8m2.7-38.8v38.8m2.6-38.8v38.8m2.7-38.8v38.8m2.7-38.8v38.8m2.6-38.8v38.8m2.7-38.8v38.8"/></g><rect width="23.8" height="37.23" x="270.7" y="-23.5" fill="none" stroke="#697a93" stroke-miterlimit="10" stroke-width=".98" rx="10.5" ry="10.5"/><rect width="23.8" height="37.23" x="270.7" y="-23.5" fill="#697a93" stroke="#697a93" stroke-miterlimit="10" stroke-width=".98" rx="10.5" ry="10.5"/><path fill="#f7edee" d="M282.6 1.8l-9.1-15.7h18.2l-9.1 15.7z"/><path fill="#e5cace" d="M287.4.4l-1.8 3.5h-6.1L277.8.4h9.6z"/><path fill="#fff" stroke="#000" stroke-miterlimit="10" stroke-width=".44" d="M297.2 72.3h-.1.1z"/><path fill="#3a4556" d="M297.1 72.3v39.9h-1.6l-2.4-39.7-9.1-27.1-2 16.7-4 50.1h-1.7L275 69.5h.1l-2.8-33.1v-1.6c0-5.8 5.5-10.5 12.2-10.5s6.3 4.7 6.3 10.5c0 2.2.3 2.3.1 4l2.9.6 3.4 32.8z"/><circle cx="342.7" cy="6.3" r="6.5" fill="#e5cace"/><path fill="#3a4556" d="M333.1 6.3L324 22.1h18.3l-9.2-15.8zm19.3 0l-9.1 15.8h18.2l-9.1-15.8z"/><path fill="#3a4556" d="M342.9 4.6l-9.1 15.7H352l-9.1-15.7z"/><path fill="#e5cace" d="M331.6 21.9h22.5v23.67h-22.5z"/><path fill="#697a93" d="M331.6 20.4h22.5v1.49h-22.5z"/><path fill="#3a4556" d="M331.6 19h22.5v1.49h-22.5z"/><path fill="#697a93" d="M331.6 17.5h22.5v1.49h-22.5z"/><path fill="#f7edee" d="M352.1 13.8h-18.4l-2.1 3.7h22.5l-2-3.7z"/><path fill="#697a93" d="M333.6 24.1h3v4.5h-3zm7.7 0h3v4.5h-3zm7.6 0h3v4.5h-3zm-15.3 6.7h3v4.5h-3zm7.7 0h3v4.5h-3zm7.6 0h3v4.5h-3zM337.7 38h1.9v7.58h-1.9zm8.1 0h1.9v7.58h-1.9z"/><path fill="#3a4556" d="M331.6 36.9h22.5v1h-22.5zm8.1 1.1h3.1v7.58h-3.1z"/><path fill="#3a4556" d="M342.7 38h3.1v7.58h-3.1z"/><path fill="#e5cace" d="M268.2 3.9h27.9l17.8 13.7 19.1-.1.1 3.5-20.4.1h-.1L295.5 7.8l-2.9 19.7H276l-5.8-17.6-4.8 18.9 16 6.6-1.4 3.2-18.3-7.6-.4-.2 6.9-26.9z"/><rect width="6.1" height=".69" x="332.6" y="2.6" fill="#697a93" rx=".3" ry=".3"/><path fill="#fff" d="M284.9 18.9h1.3v10.11h-1.3zm2.6 0h1.3v10.11h-1.3zm2.6 0h1.3v10.11h-1.3z"/><path fill="#fff" d="M286.8 18a1.3 1.3 0 0 1-1.3 1.3 1.3 1.3 0 0 1-1.2-1.3.9.9 0 0 1 .1-.5l1.1-2 1.2 2c0 .2.1.3.1.5zm2.6 0a1.2 1.2 0 0 1-1.2 1.3 1.3 1.3 0 0 1-1.3-1.3c0-.2.1-.3.2-.5l1.1-2 1.1 2a.9.9 0 0 1 .1.5zm2.6 0a1.2 1.2 0 0 1-1.2 1.3 1.3 1.3 0 0 1-1.3-1.3c0-.2.1-.3.2-.5l1.1-2 1.1 2a.9.9 0 0 1 .1.5z"/><rect width="6.1" height=".69" x="335.1" y="4.2" fill="#697a93" rx=".3" ry=".3"/><path fill="#697a93" d="M335.1 9.9l-2 1.5-2-1.5 2-3.6 2 3.6zm15.3 0l1.9 1.5 2.1-1.5-2-3.6-2 3.6z"/><path fill="#f7edee" stroke="#697a93" stroke-miterlimit="10" stroke-width=".95" d="M284 26.4l8.6 1.1 1.1 11.9H284v-13z"/><path fill="#697a93" d="M345.4 9l-2.6 1.8-2.5-1.8 2.6-4.4 2.5 4.4z"/><path fill="#f0f0f0" stroke="#f0f0f0" stroke-miterlimit="10" stroke-width="1.62" d="M292.6 25.7h-17.3l.5 1.5h16.6l.2-1.5z"/><path fill="none" stroke="#697a93" stroke-miterlimit="10" stroke-width="1.14" d="M174.3 224.6l5.7 50.3m-17.6-50.3l-4.4 50.3"/><rect width="23.8" height="37.3" x="82.9" y="136.8" fill="#697a93" rx="10.5" ry="10.5"/><g fill="#697a93" stroke="#697a93" stroke-miterlimit="10" stroke-width=".98" clip-path="url(#f)"><path d="M85.5 135.6v38.9m2.7-38.9v38.9m2.6-38.9v38.9m2.7-38.9v38.9m2.7-38.9v38.9m2.6-38.9v38.9m2.7-38.9v38.9m2.6-38.9v38.9"/></g><rect width="23.8" height="37.3" x="82.9" y="136.8" fill="none" stroke="#697a93" stroke-miterlimit="10" stroke-width=".98" rx="10.5" ry="10.5"/><rect width="23.8" height="37.3" x="82.9" y="136.8" fill="#697a93" stroke="#697a93" stroke-miterlimit="10" stroke-width=".98" rx="10.5" ry="10.5"/><path fill="#fff" stroke="#f0f0f0" stroke-miterlimit="10" stroke-width="1.63" d="M99.7 160.7l-1.8 3.5h-6.1l-1.8-3.5h9.7z"/><path fill="#3a4556" d="M109.4 232.7v40.1h-1.6l-2.4-39.8-9.1-27.2-2 16.7-4.1 50.3h-1.7L87.3 230l-2.8-33.3v-1.5c0-5.8 5.5-10.5 12.3-10.5s6.3 4.7 6.3 10.5c0 2.2.3 2.3.1 4l2.9.6 3.4 32.9z"/><rect width="23.8" height="37.3" x="153.5" y="160.3" fill="#697a93" rx="10.5" ry="10.5"/><g fill="#697a93" stroke="#697a93" stroke-miterlimit="10" stroke-width=".98" clip-path="url(#g)"><path d="M156.1 159.1V198m2.7-38.9V198m2.6-38.9V198m2.7-38.9V198m2.6-38.9V198m2.7-38.9V198m2.6-38.9V198m2.7-38.9V198"/></g><rect width="23.8" height="37.3" x="153.5" y="160.3" fill="none" stroke="#697a93" stroke-miterlimit="10" stroke-width=".98" rx="10.5" ry="10.5"/><rect width="23.8" height="37.3" x="153.5" y="160.3" fill="#697a93" stroke="#697a93" stroke-miterlimit="10" stroke-width=".98" rx="10.5" ry="10.5"/><path fill="#e5cace" d="M80.4 164.2h28l17.8 13.7h19.2l.1 3.5H125l-17.2-13.3-2.9 19.7H88.3l-5.9-17.6-4.8 18.9 16 6.7-1.3 3.2-18.4-7.6-.4-.2 6.9-27z"/><path fill="#fff" d="M97.3 179.3h1.3v10.13h-1.3zm2.6 0h1.3v10.13h-1.3zm2.6 0h1.3v10.13h-1.3z"/><path fill="#fff" d="M99.2 178.4a1.2 1.2 0 0 1-1.3 1.2 1.2 1.2 0 0 1-1.2-1.2 1.3 1.3 0 0 1 .1-.6l1.1-2 1.2 2c0 .2.1.4.1.6zm2.6 0a1.2 1.2 0 0 1-1.2 1.2 1.2 1.2 0 0 1-1.3-1.2c0-.2.1-.4.1-.6l1.2-2 1.1 2a1.3 1.3 0 0 1 .1.6zm2.6 0a1.2 1.2 0 0 1-1.2 1.2 1.2 1.2 0 0 1-1.3-1.2 1.4 1.4 0 0 1 .2-.6l1.1-2 1.1 2a1.3 1.3 0 0 1 .1.6z"/><path fill="#f7edee" d="M96.2 186.8l8.7 1 1.1 12h-9.8v-13z"/><path fill="#f0f0f0" stroke="#f0f0f0" stroke-miterlimit="10" stroke-width="1.63" d="M105.1 186.3H87.7l.6 1.5h16.6l.2-1.5z"/><path fill="#d3afb6" d="M175.6 223.6a.9.9 0 0 1-.9 1h-28.6a1 1 0 0 1-1-1 1 1 0 0 1 1-.9h19.6v-38.8a.9.9 0 0 1 .9-.9h8a.9.9 0 0 1 .9.9v39.4a.4.4 0 0 1 .1.3z"/><path fill="#e5cace" d="M160.6 184.9l1.7 3.5h6.2l1.7-3.5h-9.6z"/><path fill="#4d5d6d" d="M137.5 217.1l-4.4 56.3 1.7.3 9.7-53.3"/><path fill="#3a4556" d="M175.2 217.1a5.6 5.6 0 0 1-5.6 5.6h-24.5l6.5 52-1.6.2-12-55.5-.5-2.3a5.6 5.6 0 0 1 5.6-5.5h26.5a5.5 5.5 0 0 1 3.9 1.6 5.2 5.2 0 0 1 1.7 3.9z"/><path fill="#e5cace" d="M153.8 202l1.5 10.1H172l5.9-17.7 4.8 18.9-16.1 6.7 1.3 3.2 18.4-7.6.5-.2-6.9-27h-28.1l-18.7 14.5 5.7 2.3 16.8 7.3 1.4-3.2-17.1-7.3 12.5-9.7 1.4 9.7m0 0"/><path fill="#f7edee" d="M94.8 162.1l-9.1-15.8h18.2l-9.1 15.8zm70.6 23.5l-9.1-15.8h18.2l-9.1 15.8z"/><path fill="#fff" d="M154.86 177.302l.248 1.276-9.944 1.933-.248-1.276z"/><path fill="#fff" d="M155.9 178.9a1.2 1.2 0 0 1-1.4-1 1.2 1.2 0 0 1 1-1.5h.5l2.2.7-1.8 1.5z"/><path fill="none" stroke="#697a93" stroke-miterlimit="10" stroke-width="1.14" d="M1.9 212.7L17.6 273m-5.2-21h-28 28z"/><path fill="#f7edee" stroke="#e5cace" stroke-miterlimit="10" stroke-width="1.62" d="M-20.8 155.9h39.3v55.05h-39.3z"/><path fill="#e5cace" d="M-26.1 211h49.8v1.75h-49.8zm35.9-58.6h1.7v3.5H9.8z"/><circle cx="-1.3" cy="167.1" r="6.5" fill="#e5cace"/><path fill="#3a4556" d="M8.3 167.1l-9.1 15.8h18.3l-9.2-15.8z"/><path fill="#3a4556" d="M-1.1 165.3l-9.2 15.8H8l-9.1-15.8z"/><path fill="#e5cace" d="M-12.4 182.6h22.5v23.67h-22.5z"/><path fill="#697a93" d="M-12.4 181.2h22.5v1.49h-22.5z"/><path fill="#3a4556" d="M-12.4 179.8h22.5v1.49h-22.5z"/><path fill="#697a93" d="M-12.4 178.3h22.5v1.49h-22.5z"/><path fill="#f7edee" d="M8.1 174.6h-18.5l-2 3.7h22.5l-2-3.7z"/><path fill="#697a93" d="M-2.8 184.8h3v4.5h-3zm7.7 0h3v4.5h-3zm-7.7 6.7h3v4.5h-3zm7.7 0h3v4.5h-3zm-3.2 7.2h1.9v7.58H1.7z"/><path fill="#3a4556" d="M-12.4 197.7h22.5v1h-22.5zm11.1 1h3.1v7.58h-3.1z"/><path fill="#697a93" d="M6.3 170.7l2 1.5 2.1-1.5-2.1-3.6-2 3.6zm-4.9-.9l-2.6 1.8-2.5-1.8 2.6-4.5 2.5 4.5z"/><path fill="#d3afb6" d="M402 204.6a1 1 0 0 1-1 1h-30.3a1.1 1.1 0 0 1-1-1 1 1 0 0 1 1-1h20.8v-41.1a1 1 0 0 1 1-1h8.4a.9.9 0 0 1 1 1v41.7a.6.6 0 0 1 .1.4z"/><rect width="25" height="39.18" x="378.7" y="137.8" fill="#697a93" rx="11" ry="11"/><g fill="#697a93" stroke="#697a93" stroke-miterlimit="10" stroke-width=".98" clip-path="url(#h)"><path d="M381.4 136.6v40.8m2.8-40.8v40.8m2.8-40.8v40.8m2.8-40.8v40.8m2.8-40.8v40.8m2.8-40.8v40.8m2.8-40.8v40.8m2.8-40.8v40.8"/></g><rect width="25" height="39.18" x="378.7" y="137.8" fill="none" stroke="#697a93" stroke-miterlimit="10" stroke-width=".98" rx="11" ry="11"/><rect width="25" height="39.18" x="378.7" y="137.8" fill="#697a93" stroke="#697a93" stroke-miterlimit="10" stroke-width=".98" rx="11" ry="11"/><path fill="#e5cace" d="M386.1 163.5l1.8 3.7h6.5l1.9-3.7h-10.2z"/><path fill="none" stroke="#697a93" stroke-miterlimit="10" stroke-width="1.2" d="M400.6 205.6l6.1 53.3M388 205.6l-4.7 53.3"/><path fill="#f7edee" d="M391.2 164.4l-9.6-16.6h19.2l-9.6 16.6z"/><path fill="#4d5d6d" d="M361.6 197.7l-4.6 59.6 1.7.3 10.4-56.4"/><path fill="#3a4556" d="M401.6 197.7a6 6 0 0 1-6 5.9h-25.9l6.9 55.1-1.7.2-12.7-58.8-.6-2.4a5.9 5.9 0 0 1 6-5.9h28a5.6 5.6 0 0 1 4.2 1.7 6 6 0 0 1 1.8 4.2z"/><path fill="#e5cace" d="M406.5 167.2h-29.7l-23.5 18.2h26.2l1 7h17.7l6.2-18.7 5.1 20.1-17 7 1.4 3.4 19.5-8.1.5-.2zm-42.3 14.5l13.2-10.3 1.5 10.2z"/><path fill="none" stroke="#697a93" stroke-miterlimit="10" stroke-width="1.2" d="M337.4 198.3l16.7 64.1m-108.4-64.1L229 262.4m24.7-64.1l.4 56m75.3-56l.5 56"/><rect width="55.5" height="33.15" x="274" y="155.4" fill="#e5cace" rx="4.4" ry="4.4"/><path fill="#d3afb6" d="M307.6 196.1h-12.1l1.9-15.3h8.3l1.9 15.3z"/><circle cx="301.4" cy="167.5" r="2.5" fill="#f7edee"/><path fill="#697a93" d="M240.2 196.1h102.9v2.17H240.2z"/><rect width="11" height="4.49" x="245.2" y="191.6" fill="#d3afb6" rx="2.2" ry="2.2"/><path fill="#f7edee" d="M260.7 168.8h1.4V166a4.5 4.5 0 0 0-4.5-4.5h-3a4.8 4.8 0 0 0-4.8 4.8v25.3h1.5v-25.1s.1-3.8 3.3-3.8h3.2a3 3 0 0 1 2.9 3.3z"/><path fill="#d3afb6" d="M267.6 180.1h-12.2l4.2-8.4h3.5l4.5 8.4z"/><rect width="7.4" height="14.83" x="381.6" y="172" fill="#3a4556" rx="1.2" ry="1.2"/><circle cx="385.3" cy="176.9" r="1.2" fill="#697a93"/><path fill="#e5cace" d="M258.8 170.3h5.1v1.39h-5.1z"/><path fill="#d3afb6" d="M260.1 168.5h2.5v1.74h-2.5z"/><rect height="44.57" x="544.1" y="212.7" fill="#fff" stroke="#697a93" stroke-miterlimit="10" stroke-width="1.14"/><path fill="none" stroke="#697a93" stroke-miterlimit="10" stroke-width="1.14" d="M547.6 212.7l15.7 60.3m-22.7-60.3L524.8 273m33.2-21h-27.9H558z"/><path fill="#f7edee" stroke="#e5cace" stroke-miterlimit="10" stroke-width="1.62" d="M524.8 155.9h39.3v55.05h-39.3z"/><path fill="#e5cace" d="M519.6 211h49.8v1.75h-49.8z"/><rect width="23.8" height="37.23" x="472.3" y="137.3" fill="#697a93" rx="10.5" ry="10.5"/><g fill="#697a93" stroke="#697a93" stroke-miterlimit="10" stroke-width=".98" clip-path="url(#i)"><path d="M474.9 136.2v38.7m2.7-38.7v38.7m2.6-38.7v38.7m2.7-38.7v38.7m2.6-38.7v38.7m2.7-38.7v38.7m2.6-38.7v38.7m2.7-38.7v38.7"/></g><rect width="23.8" height="37.23" x="472.3" y="137.3" fill="none" stroke="#697a93" stroke-miterlimit="10" stroke-width=".98" rx="10.5" ry="10.5"/><rect width="23.8" height="37.23" x="472.3" y="137.3" fill="#697a93" stroke="#697a93" stroke-miterlimit="10" stroke-width=".98" rx="10.5" ry="10.5"/><path fill="#f7edee" d="M484.2 162.6l-9.1-15.8h18.2l-9.1 15.8z"/><path fill="#e5cace" d="M531.8 152.4h1.7v3.5h-1.7zm23.6 0h1.7v3.5h-1.7zm-66.4 8.7l-1.7 3.5h-6.2l-1.7-3.5h9.6z"/><path fill="#fff" stroke="#000" stroke-miterlimit="10" stroke-width=".44" d="M498.8 233.1v-.1.1z"/><path fill="#3a4556" d="M498.8 233v39.9h-1.7l-2.4-39.6-9.1-27.2-1.9 16.7-4.1 50.1H478l-1.2-42.6-2.8-33.1v-1.5c0-5.8 5.5-10.5 12.2-10.5s6.4 4.7 6.4 10.5c0 2.1.3 2.3 0 3.9l2.9.6L499 233z"/><circle cx="544.4" cy="167.1" r="6.5" fill="#e5cace"/><path fill="#3a4556" d="M534.8 167.1l-9.1 15.8h18.2l-9.1-15.8zm19.2 0l-9.1 15.8h18.2l-9.1-15.8z"/><path fill="#3a4556" d="M544.5 165.3l-9.1 15.8h18.2l-9.1-15.8z"/><path fill="#e5cace" d="M533.3 182.6h22.5v23.67h-22.5z"/><path fill="#697a93" d="M533.3 181.1h22.5v1.49h-22.5z"/><path fill="#3a4556" d="M533.3 179.8h22.5v1.49h-22.5z"/><path fill="#697a93" d="M533.3 178.3h22.5v1.49h-22.5z"/><path fill="#f7edee" d="M553.7 174.6h-18.4l-2 3.7h22.5l-2.1-3.7z"/><path fill="#697a93" d="M535.3 184.8h3v4.5h-3zm7.6 0h3v4.5h-3zm7.7 0h3v4.5h-3zm-15.3 6.7h3v4.5h-3zm7.6 0h3v4.5h-3zm7.7 0h3v4.5h-3zm-11.2 7.2h1.9v7.58h-1.9zm8 0h1.9v7.58h-1.9z"/><path fill="#3a4556" d="M533.3 197.7h22.5v1h-22.5zm8 1h3.1v7.58h-3.1z"/><path fill="#3a4556" d="M544.3 198.7h3.1v7.58h-3.1z"/><path fill="#e5cace" d="M469.8 164.6h27.9l17.8 13.8 19.2-.1v3.5h-20.4l-17.1-13.2-2.9 19.6h-16.7l-5.8-17.6-4.8 18.9 16 6.6-1.3 3.3-18.4-7.6-.4-.2 6.9-27z"/><rect width="6.1" height=".69" x="534.2" y="163.4" fill="#697a93" rx=".3" ry=".3"/><path fill="#fff" d="M486.5 179.7h1.3v10.11h-1.3zm2.6 0h1.3v10.11h-1.3zm2.7 0h1.3v10.11h-1.3z"/><path fill="#fff" d="M488.4 178.8a1.2 1.2 0 0 1-1.2 1.3 1.3 1.3 0 0 1-1.3-1.3.8.8 0 0 1 .2-.5l1.1-2.1 1.1 2.1a.7.7 0 0 1 .1.5zm2.6 0a1.2 1.2 0 0 1-1.2 1.3 1.3 1.3 0 0 1-1.3-1.3.8.8 0 0 1 .2-.5l1.1-2.1 1.1 2.1a.7.7 0 0 1 .1.5zm2.7 0a1.3 1.3 0 0 1-1.3 1.3 1.2 1.2 0 0 1-1.2-1.3.7.7 0 0 1 .1-.5l1.1-2.1 1.1 2.1a.8.8 0 0 1 .2.5z"/><rect width="6.1" height=".69" x="536.8" y="165" fill="#697a93" rx=".3" ry=".3"/><path fill="#697a93" d="M536.8 170.7l-2.1 1.4-2-1.4 2.1-3.6 2 3.6zm15.2 0l2 1.4 2-1.4-2-3.6-2 3.6z"/><path fill="#f7edee" stroke="#697a93" stroke-miterlimit="10" stroke-width=".95" d="M485.6 187.2l8.7 1 1 11.9h-9.7v-12.9z"/><path fill="#697a93" d="M547 169.7l-2.6 1.9-2.4-1.9 2.5-4.4 2.5 4.4z"/><path fill="#f0f0f0" stroke="#f0f0f0" stroke-miterlimit="10" stroke-width="1.62" d="M494.3 186.4h-17.4l.5 1.6H494l.3-1.6z"/><path fill="#d3afb6" d="M76.9 365.4a1 1 0 0 1-1 1H45.6a1.1 1.1 0 0 1-1-1 1 1 0 0 1 1-1h20.8v-41.1a1 1 0 0 1 1-1h8.4a.9.9 0 0 1 1 1V365c.1.1.1.2.1.4z"/><rect width="25" height="39.18" x="53.6" y="298.6" fill="#697a93" rx="11" ry="11"/><path fill="#e5cace" d="M61 324.3l1.8 3.7h6.5l1.9-3.7H61z"/><path fill="none" stroke="#697a93" stroke-miterlimit="10" stroke-width="1.2" d="M75.5 366.4l6.1 53.3m-18.7-53.3l-4.7 53.3"/><path fill="#f7edee" d="M66.1 325.2l-9.6-16.6h19.2l-9.6 16.6z"/><path fill="#4d5d6d" d="M36.5 358.5l-4.6 59.6 1.7.3L44 361.9"/><path fill="#3a4556" d="M76.5 358.5a6 6 0 0 1-6 5.9H44.6l6.9 55.1-1.7.2-12.7-58.8-.6-2.4a5.9 5.9 0 0 1 6-5.9h28a5.6 5.6 0 0 1 4.2 1.7 5.8 5.8 0 0 1 1.8 4.2z"/><path fill="#e5cace" d="M81.4 328H51.7l-23.5 18.2h26.2l1 7h17.7l6.2-18.7 5.1 20-17 7.1 1.4 3.4 19.5-8.1.5-.2zm-42.3 14.5l13.2-10.3 1.5 10.2z"/><path fill="none" stroke="#697a93" stroke-miterlimit="10" stroke-width="1.2" d="M12.3 359.1L29 423.2M4.3 359.1l.5 56"/><rect width="55.5" height="33.15" x="-51.1" y="316.2" fill="#e5cace" rx="4.4" ry="4.4"/><path fill="#697a93" d="M-84.9 356.9H18v2.17H-84.9z"/><rect width="7.4" height="14.83" x="56.5" y="332.8" fill="#3a4556" rx="1.2" ry="1.2"/><circle cx="60.2" cy="337.7" r="1.2" fill="#697a93"/><path fill="none" stroke="#697a93" stroke-miterlimit="10" stroke-width="1.14" d="M394.8 385.4l5.8 50.3m-17.7-50.3l-4.4 50.3"/><rect width="23.8" height="37.3" x="303.5" y="297.5" fill="#697a93" rx="10.5" ry="10.5"/><rect width="23.8" height="37.3" x="303.5" y="297.5" fill="#697a93" rx="10.5" ry="10.5"/><path fill="#fff" stroke="#f0f0f0" stroke-miterlimit="10" stroke-width="1.63" d="M320.2 321.4l-1.7 3.5h-6.2l-1.7-3.5h9.6z"/><path fill="#3a4556" d="M330 393.5v40h-1.6l-2.5-39.7-9.1-27.2-2 16.7-4 50.2H309l-1.2-42.7h.1l-2.8-33.2V356c0-5.8 5.5-10.6 12.2-10.6s6.4 4.8 6.4 10.6c0 2.1.3 2.3 0 3.9l3 .6 3.4 32.9z"/><rect width="23.8" height="37.3" x="374" y="321" fill="#697a93" rx="10.5" ry="10.5"/><rect width="23.8" height="37.3" x="374" y="321" fill="#697a93" rx="10.5" ry="10.5"/><path fill="#e5cace" d="M300.9 324.9H329l17.8 13.8H366v3.4l-20.4.1h-.1l-17.1-13.3-2.9 19.7h-16.7l-5.9-17.6-4.8 18.9 16.1 6.6-1.3 3.3-18.4-7.7-.5-.1 6.9-27.1z"/><path fill="#fff" d="M317.8 340h1.3v10.13h-1.3zm2.7 0h1.3v10.13h-1.3zm2.6 0h1.3v10.13h-1.3z"/><path fill="#fff" d="M319.7 339.1a1.2 1.2 0 0 1-1.2 1.3 1.3 1.3 0 0 1-1.3-1.3c0-.2.1-.3.2-.5l1.1-2 1.1 2a.9.9 0 0 1 .1.5zm2.7 0a1.3 1.3 0 0 1-1.3 1.3 1.2 1.2 0 0 1-1.2-1.3.9.9 0 0 1 .1-.5l1.1-2 1.1 2c.1.2.2.3.2.5zm2.6 0a1.3 1.3 0 0 1-1.2 1.3 1.3 1.3 0 0 1-1.3-1.3.9.9 0 0 1 .1-.5l1.2-2 1.1 2a.9.9 0 0 1 .1.5z"/><path fill="#f7edee" stroke="#697a93" stroke-miterlimit="10" stroke-width=".95" d="M316.8 347.6l8.7 1 1.1 11.9h-9.8v-12.9z"/><path fill="#f0f0f0" stroke="#f0f0f0" stroke-miterlimit="10" stroke-width="1.63" d="M325.7 347.1h-17.4l.5 1.5h16.7l.2-1.5z"/><path fill="#d3afb6" d="M396.2 384.4a1.1 1.1 0 0 1-1 1h-28.6a1 1 0 0 1-.9-1 .9.9 0 0 1 .9-.9h19.6v-38.8a1 1 0 0 1 1-.9h8a.9.9 0 0 1 .9.9v39.7z"/><path fill="#e5cace" d="M381.1 345.7l1.8 3.5h6.1l1.8-3.5h-9.7z"/><path fill="#4d5d6d" d="M358.1 377.9l-4.4 56.3 1.6.2 9.8-53.2"/><path fill="#3a4556" d="M395.7 377.9a5.6 5.6 0 0 1-5.5 5.6h-24.5l6.5 51.9-1.6.3-12-55.5-.5-2.3a5.6 5.6 0 0 1 5.6-5.6h26.5a5.6 5.6 0 0 1 3.9 1.7 5.5 5.5 0 0 1 1.6 3.9z"/><path fill="#e5cace" d="M374.4 362.8l1.5 10h16.6l5.9-17.6 4.8 18.9-16 6.7 1.3 3.2 18.4-7.6.4-.2-6.9-27h-28l-18.7 14.4 5.7 2.3 16.8 7.3 1.4-3.1-17.1-7.3 12.5-9.7 1.4 9.7m0 0"/><path fill="#f7edee" d="M315.4 322.9l-9.1-15.8h18.2l-9.1 15.8zm70.6 23.5l-9.1-15.8h18.2l-9.1 15.8z"/><path fill="#fff" d="M375.588 338.133l.248 1.276-9.944 1.933-.248-1.276z"/><path fill="#fff" d="M376.5 339.7a1.4 1.4 0 0 1-1.5-1 1.3 1.3 0 0 1 1-1.5h.6l2.2.8-1.8 1.4z"/><rect height="44.57" x="219" y="373.5" fill="#fff" stroke="#697a93" stroke-miterlimit="10" stroke-width="1.14"/><path fill="none" stroke="#697a93" stroke-miterlimit="10" stroke-width="1.14" d="M222.5 373.5l15.7 60.3m-22.7-60.3l-15.8 60.3m33.2-21H205h27.9z"/><path fill="#f7edee" stroke="#e5cace" stroke-miterlimit="10" stroke-width="1.62" d="M199.7 316.7H239v55.05h-39.3z"/><path fill="#e5cace" d="M194.5 371.7h49.8v1.75h-49.8z"/><rect width="23.8" height="37.23" x="147.2" y="298.1" fill="#697a93" rx="10.5" ry="10.5"/><rect width="23.8" height="37.23" x="147.2" y="298.1" fill="none" stroke="#6a7a93" stroke-miterlimit="10" rx="10.5" ry="10.5"/><rect width="23.8" height="37.23" x="147.2" y="298.1" fill="none" stroke="#697a93" stroke-miterlimit="10" stroke-width=".97" rx="10.5" ry="10.5"/><path fill="#f7edee" d="M159.1 323.4l-9.1-15.8h18.2l-9.1 15.8z"/><path fill="#e5cace" d="M206.7 313.2h1.7v3.5h-1.7zm23.6 0h1.7v3.5h-1.7zm-66.4 8.7l-1.7 3.5H156l-1.7-3.5h9.6z"/><path fill="#fff" stroke="#000" stroke-miterlimit="10" stroke-width=".44" d="M173.7 393.9v-.1.1z"/><path fill="#3a4556" d="M173.7 393.8v39.9H172l-2.4-39.6-9.1-27.2-1.9 16.7-4.1 50.1h-1.6l-1.3-42.6h.1l-2.8-33.1v-1.5c0-5.8 5.5-10.5 12.2-10.5s6.4 4.7 6.4 10.5c0 2.1.3 2.3 0 3.9l2.9.6 3.5 32.8z"/><circle cx="219.3" cy="327.9" r="6.5" fill="#e5cace"/><path fill="#3a4556" d="M209.7 327.9l-9.1 15.8h18.2l-9.1-15.8zm19.2 0l-9.1 15.8H238l-9.1-15.8z"/><path fill="#3a4556" d="M219.4 326.1l-9.1 15.8h18.2l-9.1-15.8z"/><path fill="#e5cace" d="M208.2 343.4h22.5v23.67h-22.5z"/><path fill="#697a93" d="M208.2 341.9h22.5v1.49h-22.5z"/><path fill="#3a4556" d="M208.2 340.6h22.5v1.49h-22.5z"/><path fill="#697a93" d="M208.2 339.1h22.5v1.49h-22.5z"/><path fill="#f7edee" d="M228.6 335.4h-18.4l-2 3.7h22.5l-2.1-3.7z"/><path fill="#697a93" d="M210.1 345.6h3v4.5h-3zm7.7 0h3v4.5h-3zm7.6 0h3v4.5h-3zm-15.3 6.7h3v4.5h-3zm7.7 0h3v4.5h-3zm7.6 0h3v4.5h-3zm-11.1 7.2h1.9v7.58h-1.9zm8 0h1.9v7.58h-1.9z"/><path fill="#3a4556" d="M208.2 358.5h22.5v1h-22.5zm8 1h3.1v7.58h-3.1z"/><path fill="#3a4556" d="M219.2 359.5h3.1v7.58h-3.1z"/><path fill="#e5cace" d="M144.7 325.4h27.9l17.8 13.7h19.2v3.5h-20.4l-17.1-13.2-3 19.6h-16.6l-5.8-17.6-4.8 18.9 16 6.6-1.3 3.3-18.4-7.7-.4-.1 6.9-27z"/><rect width="6.1" height=".69" x="209.1" y="324.2" fill="#697a93" rx=".3" ry=".3"/><path fill="#fff" d="M161.4 340.5h1.3v10.11h-1.3zm2.6 0h1.3v10.11H164zm2.7 0h1.3v10.11h-1.3z"/><path fill="#fff" d="M163.3 339.6a1.2 1.2 0 0 1-1.2 1.2 1.2 1.2 0 0 1-1.3-1.2c0-.2.1-.4.1-.6l1.2-2 1.1 2a1.3 1.3 0 0 1 .1.6zm2.6 0a1.2 1.2 0 0 1-1.2 1.2 1.2 1.2 0 0 1-1.3-1.2 1.4 1.4 0 0 1 .2-.6l1.1-2 1.1 2a1.3 1.3 0 0 1 .1.6zm2.7 0a1.2 1.2 0 0 1-1.3 1.2 1.2 1.2 0 0 1-1.2-1.2 1.3 1.3 0 0 1 .1-.6l1.1-2 1.1 2a1.4 1.4 0 0 1 .2.6z"/><rect width="6.1" height=".69" x="211.7" y="325.8" fill="#697a93" rx=".3" ry=".3"/><path fill="#697a93" d="M211.7 331.4l-2.1 1.5-2-1.5 2.1-3.5 2 3.5zm15.2 0l2 1.5 2-1.5-2-3.5-2 3.5z"/><path fill="#f7edee" stroke="#697a93" stroke-miterlimit="10" stroke-width=".95" d="M160.5 348l8.6 1 1.1 11.9h-9.7V348z"/><path fill="#697a93" d="M221.9 330.5l-2.6 1.9-2.4-1.9 2.5-4.4 2.5 4.4z"/><path fill="#f0f0f0" stroke="#f0f0f0" stroke-miterlimit="10" stroke-width="1.62" d="M169.2 347.2h-17.4l.5 1.6h16.6l.3-1.6z"/><path fill="#e5cace" d="M627.1 328h-29.8l-23.4 18.1H600l1.1 7h17.6l6.3-18.7 5.1 20-17.1 7.1 1.4 3.4 19.5-8.1.5-.2zm-42.4 14.4l13.3-10.3 1.5 10.3z"/><path fill="none" stroke="#697a93" stroke-miterlimit="10" stroke-width="1.2" d="M557.9 359.1l16.7 64.1m-108.3-64.1l-16.7 64.1m24.6-64.1l.5 56m75.2-56l.5 56"/><rect width="55.5" height="33.15" x="494.5" y="316.2" fill="#e5cace" rx="4.4" ry="4.4"/><path fill="#d3afb6" d="M528.1 356.9h-12l1.8-15.3h8.4l1.8 15.3z"/><circle cx="521.9" cy="328.2" r="2.5" fill="#f7edee"/><path fill="#697a93" d="M460.8 356.9h102.9v2.17H460.8z"/><rect width="11" height="4.49" x="465.7" y="352.4" fill="#d3afb6" rx="2.2" ry="2.2"/><path fill="#f7edee" d="M481.3 329.6h1.4v-2.8a4.5 4.5 0 0 0-4.6-4.5h-2.9a4.7 4.7 0 0 0-4.8 4.7v25.4h1.4v-25.1s.1-3.8 3.4-3.8h3.2s2.9-.1 2.9 3.3z"/><path fill="#d3afb6" d="M488.2 340.9h-12.3l4.3-8.5h3.4l4.6 8.5z"/><path fill="#e5cace" d="M479.3 331h5.1v1.39h-5.1z"/><path fill="#d3afb6" d="M480.7 329.3h2.5v1.74h-2.5zM18.2 526.2a1 1 0 0 1-1 .9h-30.3a.9.9 0 0 1-1-.9.9.9 0 0 1 1-1H7.7V484a.9.9 0 0 1 1-.9h8.4a1 1 0 0 1 1 .9v41.8c0 .1.1.2.1.4z"/><rect width="25" height="39.18" x="-5.2" y="459.4" fill="#697a93" rx="11" ry="11"/><rect width="25" height="39.18" x="-5.2" y="459.4" fill="#697a93" rx="11" ry="11"/><path fill="#e5cace" d="M2.2 485.1l1.9 3.7h6.5l1.9-3.7H2.2z"/><path fill="none" stroke="#697a93" stroke-miterlimit="10" stroke-width="1.2" d="M16.7 527.1l6.2 53.4M4.1 527.1l-4.6 53.4"/><path fill="#f7edee" d="M7.4 486l-9.6-16.6h19.1L7.4 486z"/><path fill="#3a4556" d="M17.7 519.2a5.9 5.9 0 0 1-5.9 6h-25.9l6.9 55.1-1.8.2-12.7-58.8-.5-2.5a6 6 0 0 1 5.9-5.9h28.1a6 6 0 0 1 4.2 1.8 5.5 5.5 0 0 1 1.7 4.1z"/><path fill="#e5cace" d="M22.7 488.8H-7.1l-23.4 18.1h26.1l1.1 7h17.6l6.3-18.8 5.1 20.1-17.1 7.1 1.4 3.4 19.5-8.1.5-.2zm-42.4 14.4l13.3-10.3 1.5 10.3z"/><rect width="7.4" height="14.83" x="-2.2" y="493.6" fill="#3a4556" rx="1.2" ry="1.2"/><circle cx="1.4" cy="498.4" r="1.2" fill="#697a93"/><path fill="none" stroke="#697a93" stroke-miterlimit="10" stroke-width="1.14" d="M336.1 546.1l5.7 50.3m-17.6-50.3l-4.4 50.3"/><rect width="23.8" height="37.3" x="244.7" y="458.3" fill="#697a93" rx="10.5" ry="10.5"/><rect width="23.8" height="37.3" x="244.7" y="458.3" fill="none" stroke="#697a93" stroke-miterlimit="10" stroke-width=".98" rx="10.5" ry="10.5"/><path fill="#fff" stroke="#f0f0f0" stroke-miterlimit="10" stroke-width="1.63" d="M261.5 482.2l-1.8 3.5h-6.1l-1.8-3.5h9.7z"/><path fill="#3a4556" d="M271.3 554.3v40h-1.7l-2.4-39.7-9.1-27.3-2 16.8-4.1 50.2h-1.6l-1.2-42.7-2.7-33.2-.2-1.5c0-5.9 5.5-10.6 12.3-10.6s6.3 4.7 6.3 10.6c0 2.1.3 2.2.1 3.9l2.9.6 3.5 32.9z"/><g fill="none" stroke="#697a93" stroke-miterlimit="10" stroke-width=".95" clip-path="url(#j)"><path d="M317.9 480.7v38.8m2.7-38.8v38.8m2.6-38.8v38.8m2.7-38.8v38.8m2.6-38.8v38.8m2.7-38.8v38.8m2.7-38.8v38.8m2.6-38.8v38.8"/></g><rect width="23.8" height="37.3" x="315.3" y="481.8" fill="#697a93" stroke="#697a93" stroke-miterlimit="10" stroke-width=".98" rx="10.5" ry="10.5"/><path fill="#e5cace" d="M242.2 485.7h28l17.8 13.8 19.3-.1v3.5l-20.4.1h-.1l-17.1-13.3-3 19.7h-16.6l-5.9-17.7-4.8 19 16 6.6-1.3 3.2-18.4-7.6-.4-.2 6.9-27z"/><path fill="#fff" d="M259.1 500.8h1.3v10.13h-1.3zm2.6 0h1.3v10.13h-1.3zm2.6 0h1.3v10.13h-1.3z"/><path fill="#fff" d="M261 499.9a1.3 1.3 0 0 1-1.2 1.3 1.3 1.3 0 0 1-1.3-1.3.7.7 0 0 1 .1-.5l1.2-2 1.1 2a.7.7 0 0 1 .1.5zm2.6 0a1.2 1.2 0 0 1-1.2 1.3 1.3 1.3 0 0 1-1.3-1.3.8.8 0 0 1 .2-.5l1.1-2 1.1 2a.7.7 0 0 1 .1.5zm2.7 0a1.3 1.3 0 0 1-1.3 1.3 1.2 1.2 0 0 1-1.2-1.3.7.7 0 0 1 .1-.5l1.1-2 1.1 2a.8.8 0 0 1 .2.5z"/><path fill="#f7edee" stroke="#697a93" stroke-miterlimit="10" stroke-width=".95" d="M258 508.4l8.7 1 1.1 11.9H258v-12.9z"/><path fill="#f0f0f0" stroke="#f0f0f0" stroke-miterlimit="10" stroke-width="1.63" d="M267 507.8h-17.4l.5 1.6h16.6l.3-1.6z"/><path fill="#d3afb6" d="M337.4 545.2a.9.9 0 0 1-.9.9h-28.6a.9.9 0 1 1 0-1.8h19.6v-38.8a.9.9 0 0 1 .9-.9h8a1 1 0 0 1 1 .9v39.7z"/><path fill="#e5cace" d="M322.4 506.4l1.7 3.5h6.2l1.7-3.5h-9.6z"/><path fill="#4d5d6d" d="M299.3 538.7l-4.4 56.2 1.7.3 9.8-53.2"/><path fill="#3a4556" d="M337 538.7a5.7 5.7 0 0 1-5.6 5.6H307l6.5 51.9-1.7.2-12-55.4-.5-2.3a5.7 5.7 0 0 1 5.6-5.6h26.5a5.8 5.8 0 0 1 4 1.6 5.6 5.6 0 0 1 1.6 4z"/><path fill="#e5cace" d="M315.6 523.5l1.5 10.1h16.7l5.9-17.6 4.8 18.9-16.1 6.6 1.3 3.3 18.4-7.7.5-.2-6.9-27h-28.1l-18.7 14.5 5.8 2.3 16.8 7.3 1.3-3.2-17.1-7.2 12.5-9.7 1.4 9.6m0 0"/><path fill="#f7edee" d="M256.6 483.6l-9.1-15.7h18.2l-9.1 15.7zm70.6 23.5l-9.1-15.7h18.2l-9.1 15.7z"/><path fill="#fff" d="M316.842 499.094l.248 1.276-9.944 1.933-.248-1.276z"/><path fill="#fff" d="M317.7 500.4a1.2 1.2 0 0 1-1.4-.9 1.2 1.2 0 0 1 1-1.5c.2-.1.4 0 .5 0l2.2.7-1.7 1.5z"/><rect height="44.57" x="160.2" y="534.3" fill="#fff" stroke="#697a93" stroke-miterlimit="10" stroke-width="1.14"/><path fill="none" stroke="#697a93" stroke-miterlimit="10" stroke-width="1.14" d="M163.7 534.3l15.7 60.3m-22.7-60.3L141 594.6m33.2-21h-28 28z"/><path fill="#f7edee" stroke="#e5cace" stroke-miterlimit="10" stroke-width="1.62" d="M141 477.5h39.3v55.05H141z"/><path fill="#e5cace" d="M135.7 532.5h49.8v1.75h-49.8z"/><rect width="23.8" height="37.23" x="88.5" y="458.9" fill="#697a93" rx="10.5" ry="10.5"/><rect width="23.8" height="37.23" x="88.5" y="458.9" fill="none" stroke="#697a93" stroke-miterlimit="10" stroke-width=".97" rx="10.5" ry="10.5"/><path fill="#f7edee" d="M100.4 484.1l-9.1-15.7h18.1l-9 15.7z"/><path fill="#e5cace" d="M148 474h1.7v3.5H148zm23.6 0h1.7v3.5h-1.7zm-66.4 8.7l-1.8 3.5h-6.1l-1.8-3.5h9.7z"/><path fill="#fff" stroke="#000" stroke-miterlimit="10" stroke-width=".44" d="M114.9 554.7v-.1.1z"/><path fill="#3a4556" d="M114.9 554.6v39.9h-1.6l-2.4-39.6-9.1-27.2-2 16.7-4 50.1H94l-1.2-42.6h.1l-2.8-33.1v-1.5c0-5.8 5.4-10.6 12.2-10.6s6.3 4.8 6.3 10.6c0 2.1.3 2.2.1 3.9l2.9.6 3.4 32.8z"/><circle cx="160.5" cy="488.6" r="6.5" fill="#e5cace"/><path fill="#3a4556" d="M150.9 488.6l-9.1 15.8H160l-9.1-15.8zm19.3 0l-9.1 15.8h18.2l-9.1-15.8z"/><path fill="#3a4556" d="M160.7 486.9l-9.1 15.8h18.2l-9.1-15.8z"/><path fill="#e5cace" d="M149.4 504.2h22.5v23.67h-22.5z"/><path fill="#697a93" d="M149.4 502.7h22.5v1.49h-22.5z"/><path fill="#3a4556" d="M149.4 501.4h22.5v1.49h-22.5z"/><path fill="#697a93" d="M149.4 499.9h22.5v1.49h-22.5z"/><path fill="#f7edee" d="M169.9 496.2h-18.5l-2 3.7h22.5l-2-3.7z"/><path fill="#697a93" d="M151.4 506.4h3v4.5h-3zm7.7 0h3v4.5h-3zm7.6 0h3v4.5h-3zm-15.3 6.7h3v4.5h-3zm7.7 0h3v4.5h-3zm7.6 0h3v4.5h-3zm-11.2 7.2h1.9v7.58h-1.9zm8 0h1.9v7.58h-1.9z"/><path fill="#3a4556" d="M149.4 519.3h22.5v1h-22.5zm8 1h3.1v7.58h-3.1zm3.1 0h3.1v7.58h-3.1z"/><path fill="#e5cace" d="M85.9 486.2h28l17.7 13.7h19.2v3.4l-20.3.1h-.1l-17.1-13.3-2.9 19.7H93.8l-5.9-17.6-4.7 18.9 16 6.6-1.4 3.2-18.3-7.6-.5-.2 6.9-26.9z"/><rect width="6.1" height=".69" x="150.4" y="484.9" fill="#697a93" rx=".3" ry=".3"/><path fill="#fff" d="M102.7 501.3h1.3v10.11h-1.3zm2.6 0h1.3v10.11h-1.3zm2.6 0h1.3v10.11h-1.3z"/><path fill="#fff" d="M104.6 500.4a1.2 1.2 0 0 1-1.3 1.2 1.2 1.2 0 0 1-1.2-1.2 1.3 1.3 0 0 1 .1-.6l1.1-2 1.1 2a1.4 1.4 0 0 1 .2.6zm2.6 0a1.2 1.2 0 0 1-1.2 1.2 1.2 1.2 0 0 1-1.3-1.2 1.3 1.3 0 0 1 .1-.6l1.2-2 1.1 2a1.3 1.3 0 0 1 .1.6zm2.6 0a1.2 1.2 0 0 1-1.2 1.2 1.2 1.2 0 0 1-1.3-1.2 1.4 1.4 0 0 1 .2-.6l1.1-2 1.1 2a1.3 1.3 0 0 1 .1.6z"/><rect width="6.1" height=".69" x="152.9" y="486.5" fill="#697a93" rx=".3" ry=".3"/><path fill="#697a93" d="M152.9 492.2l-2.1 1.5-1.9-1.5 2-3.6 2 3.6zm15.2 0l2 1.5 2.1-1.5-2-3.6-2.1 3.6z"/><path fill="#f7edee" stroke="#697a93" stroke-miterlimit="10" stroke-width=".95" d="M101.7 508.8l8.7 1 1.1 11.9h-9.8v-12.9z"/><path fill="#697a93" d="M163.2 491.3l-2.6 1.8-2.5-1.8 2.6-4.4 2.5 4.4z"/><path fill="#f0f0f0" stroke="#f0f0f0" stroke-miterlimit="10" stroke-width="1.62" d="M110.4 508H93.1l.5 1.6h16.6l.2-1.6z"/><path fill="#d3afb6" d="M563.8 526.1a.9.9 0 0 1-1 1h-30.3a1 1 0 0 1-1-1 1 1 0 0 1 1-.9h20.8V484a1.1 1.1 0 0 1 1-1h8.5a1.1 1.1 0 0 1 1 1v42.1z"/><rect width="25" height="39.18" x="540.5" y="459.3" fill="#697a93" rx="11" ry="11"/><g fill="#697a93" stroke="#697a93" stroke-miterlimit="10" stroke-width=".98" clip-path="url(#k)"><path d="M543.2 458.2V499m2.8-40.8V499m2.8-40.8V499m2.8-40.8V499m2.8-40.8V499m2.8-40.8V499m2.8-40.8V499m2.8-40.8V499"/></g><rect width="25" height="39.18" x="540.5" y="459.3" fill="none" stroke="#697a93" stroke-miterlimit="10" stroke-width=".98" rx="11" ry="11"/><rect width="25" height="39.18" x="540.5" y="459.3" fill="#697a93" stroke="#697a93" stroke-miterlimit="10" stroke-width=".98" rx="11" ry="11"/><path fill="#e5cace" d="M547.9 485l1.9 3.7h6.5l1.8-3.7h-10.2z"/><path fill="#fff" stroke="#000" stroke-miterlimit="10" stroke-width=".46" d="M542.5 506.9h-1.2l-.6-3.7h1.8v3.7z"/><path fill="none" stroke="#697a93" stroke-miterlimit="10" stroke-width="1.2" d="M562.4 527.1l6.1 53.4m-18.7-53.4l-4.7 53.4"/><path fill="#f7edee" d="M553 486l-9.5-16.6h19.1L553 486z"/><path fill="#4d5d6d" d="M523.5 519.2l-4.7 59.7 1.7.3 10.4-56.5"/><path fill="#3a4556" d="M563.4 519.2a5.9 5.9 0 0 1-5.9 5.9h-26l6.9 55.1-1.7.3-12.7-58.9-.5-2.4a5.9 5.9 0 0 1 5.9-5.9h28.1a5.9 5.9 0 0 1 4.1 1.7 6 6 0 0 1 1.8 4.2z"/><path fill="#e5cace" d="M568.3 488.7h-29.7l-23.5 18.2h26.2l1 6.9H560l6.2-18.7 5.1 20.1-17 7 1.4 3.5 19.5-8.1.5-.2zM526 503.2l13.2-10.3 1.5 10.3z"/><path fill="none" stroke="#697a93" stroke-miterlimit="10" stroke-width="1.2" d="M499.2 519.8l16.7 64.2m-108.3-64.2L390.8 584m24.7-64.2l.4 56m75.3-56l.5 56"/><rect width="55.5" height="33.15" x="435.8" y="476.9" fill="#e5cace" rx="4.4" ry="4.4"/><path fill="#d3afb6" d="M469.4 517.7h-12.1l1.9-15.4h8.3l1.9 15.4z"/><circle cx="463.2" cy="489" r="2.5" fill="#f7edee"/><path fill="#697a93" d="M402 517.7h102.9v2.17H402z"/><rect width="11" height="4.49" x="407" y="513.2" fill="#d3afb6" rx="2.2" ry="2.2"/><path fill="#f7edee" d="M422.5 490.3h1.5v-2.8a4.7 4.7 0 0 0-4.6-4.6h-3a4.9 4.9 0 0 0-4.8 4.8v25.4h1.5v-25s.1-3.8 3.3-3.8h3.2a3 3 0 0 1 3 3.3c0 3.4-.1 2.7-.1 2.7z"/><path fill="#d3afb6" d="M429.4 501.7h-12.2l4.2-8.5h3.5l4.5 8.5z"/><rect width="7.4" height="14.83" x="543.4" y="493.5" fill="#3a4556" rx="1.2" ry="1.2"/><path fill="#e5cace" d="M526 506.9h19.4v-3.7H526"/><circle cx="547.1" cy="498.4" r="1.2" fill="#697a93"/><path fill="#e5cace" d="M420.6 491.8h5.1v1.39h-5.1z"/><path fill="#d3afb6" d="M421.9 490.1h2.5v1.74h-2.5z"/></g></svg>