<svg xmlns="http://www.w3.org/2000/svg" id="Behance" viewBox="0 0 90 90" width="90" height="90"><style>.st0{fill:#f7edee}</style><path id="behance-behance" d="M25.7 64.1H11.3v15.2h14.1c4.8 0 8.7-1.5 8.7-7.3.1-5.6-3.2-7.9-8.4-7.9zm-1.9-22H11.3V55h13.5c4.2 0 7.5-1.9 7.5-6.6-.1-5.3-4.1-6.3-8.5-6.3zm23 30.1c0 11.2-9.6 16-19.6 16H.2V32.7h26.2c10.6 0 17.8 3.8 17.8 14 0 5.4-2.7 9.2-7.5 11.5 6.7 2 10.1 7.2 10.1 14zm13.1-35.8h22.3v7.4H59.9v-7.4zm10 19.1c-7.1 0-9.1 3.9-9.2 6.9h18c-.9-5.5-3.4-6.9-8.8-6.9zm-9.2 14.2c.4 6.9 3.8 11.4 9.9 11.4 4.5 0 8.6-3.6 9.3-6.1h9.8c-3.1 9.4-10.2 14.3-19.4 14.3-12.7 0-20.7-8.7-20.7-21 0-12 8.5-21 20.7-21 13.8 0 20.3 10.1 19.6 22.5 0-.1-29.2-.1-29.2-.1z" class="st0"/></svg>