<?xml version="1.0" encoding="utf-8"?>
<!-- Generator: Adobe Illustrator 22.0.1, SVG Export Plug-In . SVG Version: 6.00 Build 0)  -->
<svg version="1.1" id="Behance" xmlns="http://www.w3.org/2000/svg" xmlns:xlink="http://www.w3.org/1999/xlink" x="0px" y="0px"
	 viewBox="0 0 90 90" style="enable-background:new 0 0 90 90;" xml:space="preserve">
<style type="text/css">
	.st0{fill:#3A4556;}
</style>
<g>
	<path id="behance-behance" class="st0" d="M28.6,47.6H16.3v12.9h12c4.1,0,7.4-1.3,7.4-6.2C35.8,49.6,33,47.6,28.6,47.6z M27,28.9
		H16.3v11h11.5c3.6,0,6.4-1.6,6.4-5.6C34.1,29.8,30.7,28.9,27,28.9z M46.5,54.5c0,9.5-8.2,13.6-16.7,13.6h-23V20.9h22.3
		c9,0,15.1,3.2,15.1,11.9c0,4.6-2.3,7.8-6.4,9.8C43.6,44.3,46.5,48.7,46.5,54.5z M57.7,24.1h19v6.3h-19V24.1z M66.2,40.3
		c-6,0-7.7,3.3-7.8,5.9h15.3C72.9,41.5,70.8,40.3,66.2,40.3z M58.4,52.4c0.3,5.9,3.2,9.7,8.4,9.7c3.8,0,7.3-3.1,7.9-5.2H83
		c-2.6,8-8.7,12.2-16.5,12.2c-10.8,0-17.6-7.4-17.6-17.9c0-10.2,7.2-17.9,17.6-17.9c11.7,0,17.3,8.6,16.7,19.1H58.4z"/>
</g>
</svg>
