<?xml version="1.0" encoding="utf-8"?>
<!-- Generator: Adobe Illustrator 22.0.1, SVG Export Plug-In . SVG Version: 6.00 Build 0)  -->
<svg version="1.1" id="Behance" xmlns="http://www.w3.org/2000/svg" xmlns:xlink="http://www.w3.org/1999/xlink" x="0px" y="0px"
	 viewBox="0 0 90 73" style="enable-background:new 0 0 90 73;" xml:space="preserve">
<style type="text/css">
	.st0{fill:#3A4556;}
</style>
<g>
	<path id="behance-behance" class="st0" d="M25.7,47.1H11.2v15.2h14.1c4.8,0,8.7-1.5,8.7-7.3C34.2,49.4,30.9,47.1,25.7,47.1z
		 M23.8,25.1H11.2V38h13.5c4.2,0,7.5-1.9,7.5-6.6C32.2,26.1,28.2,25.1,23.8,25.1z M46.8,55.2c0,11.2-9.6,16-19.7,16H0V15.7h26.2
		c10.6,0,17.8,3.8,17.8,14c0,5.4-2.7,9.2-7.5,11.5C43.3,43.2,46.8,48.4,46.8,55.2z M59.9,19.4h22.4v7.4H59.9
		C59.9,26.8,59.9,19.4,59.9,19.4z M69.9,38.5c-7.1,0-9.1,3.9-9.2,6.9h18C77.8,39.9,75.4,38.5,69.9,38.5z M60.8,52.7
		c0.4,6.9,3.8,11.4,9.9,11.4c4.5,0,8.6-3.6,9.3-6.1h9.8c-3.1,9.4-10.2,14.4-19.4,14.4c-12.7,0-20.7-8.7-20.7-21.1
		c0-12,8.5-21.1,20.7-21.1c13.8,0,20.4,10.1,19.7,22.5C89.9,52.7,60.8,52.7,60.8,52.7z"/>
</g>
</svg>
