<?xml version="1.0" encoding="utf-8"?>
<!-- Generator: Adobe Illustrator 22.0.1, SVG Export Plug-In . SVG Version: 6.00 Build 0)  -->
<svg version="1.1" id="Behance" xmlns="http://www.w3.org/2000/svg" xmlns:xlink="http://www.w3.org/1999/xlink" x="0px" y="0px"
	 viewBox="0 0 82.1 82.1" style="enable-background:new 0 0 82.1 82.1;" xml:space="preserve">
<style type="text/css">
	.st0{fill:#3A4556;}
</style>
<title>Artboard 1</title>
<path id="behance-behance" class="st0" d="M23.4,49.3H10.2v13.9h12.9c4.5,0,8-1.5,8-6.7S28.2,49.3,23.4,49.3z M21.7,29.2H10.2V41
	h12.4c3.8,0,6.8-1.7,6.8-6S25.7,29.2,21.7,29.2z M42.7,56.7c0,10.2-8.9,14.6-18,14.6H0V20.6h24c9.7,0,16.2,3.4,16.2,12.8
	c0,4.9-2.6,8.3-6.9,10.5C39.5,45.7,42.7,50.5,42.7,56.7z M54.6,24h20.4v6.8H54.6V24z M63.8,41.4c-6.4,0-8.2,3.6-8.3,6.3h16.4
	C71,42.7,68.8,41.4,63.8,41.4z M55.5,54.4c0.3,6.4,3.4,10.4,8.9,10.4c4.1,0,7.8-3.3,8.5-5.6h8.9c-2.7,8.6-9.3,13.1-17.7,13.1
	c-11.6,0-18.9-7.9-18.9-19.3S53,33.8,64.1,33.8c12.6,0,18.6,9.3,17.9,20.5L55.5,54.4z"/>
</svg>
