<svg xmlns="http://www.w3.org/2000/svg" id="Behance" viewBox="0 0 82.1 82.1" width="82.1" height="82.1"><style>.st0{fill:#3a4556}</style><path id="behance-behance" d="M23.4 49.3H10.2v13.9h12.9c4.5 0 8-1.5 8-6.7s-2.9-7.2-7.7-7.2zm-1.7-20.1H10.2V41h12.4c3.8 0 6.8-1.7 6.8-6s-3.7-5.8-7.7-5.8zm21 27.5c0 10.2-8.9 14.6-18 14.6H0V20.6h24c9.7 0 16.2 3.4 16.2 12.8 0 4.9-2.6 8.3-6.9 10.5 6.2 1.8 9.4 6.6 9.4 12.8zM54.6 24H75v6.8H54.6V24zm9.2 17.4c-6.4 0-8.2 3.6-8.3 6.3h16.4c-.9-5-3.1-6.3-8.1-6.3zm-8.3 13c.3 6.4 3.4 10.4 8.9 10.4 4.1 0 7.8-3.3 8.5-5.6h8.9c-2.7 8.6-9.3 13.1-17.7 13.1-11.6 0-18.9-7.9-18.9-19.3S53 33.8 64.1 33.8c12.6 0 18.6 9.3 17.9 20.5l-26.5.1z" class="st0"/></svg>