<?xml version="1.0" encoding="utf-8"?>
<!-- Generator: Adobe Illustrator 22.0.1, SVG Export Plug-In . SVG Version: 6.00 Build 0)  -->
<svg version="1.1" id="Instagram" xmlns="http://www.w3.org/2000/svg" xmlns:xlink="http://www.w3.org/1999/xlink" x="0px" y="0px"
	 viewBox="0 0 81.9 81.9" style="enable-background:new 0 0 81.9 81.9;" xml:space="preserve">
<style type="text/css">
	.st0{fill:#3A4556;}
</style>
<title>Artboard 1</title>
<path id="instagram-instagram" class="st0" d="M72.5,34.8h-7.1c0.5,2.1,0.8,4.2,0.8,6.3C65.3,55,53.3,65.6,39.4,64.7
	C26.7,63.9,16.5,53.7,15.7,41c0.1-2.1,0.3-4.2,0.8-6.3H9.5v34.6c0,1.8,1.4,3.2,3.2,3.2h56.7c1.8,0,3.2-1.4,3.2-3.2V34.8z M72.5,12.7
	c0-1.8-1.4-3.2-3.2-3.2h-9.5c-1.7-0.1-3.1,1.3-3.2,3c0,0.1,0,0.1,0,0.2v9.5c0,1.8,1.4,3.2,3.2,3.2l0,0h9.5c1.8,0,3.2-1.4,3.2-3.2
	V12.7z M41,25.3c-8.7,0-15.7,7-15.7,15.7s7,15.7,15.7,15.7s15.7-7,15.7-15.7C56.7,32.4,49.7,25.3,41,25.3 M72.5,81.9h-63
	c-5.2-0.1-9.4-4.3-9.5-9.5V9.6C0,4.3,4.2,0.1,9.5,0h62.9c5.2,0.1,9.5,4.3,9.5,9.6v62.8C81.9,77.6,77.7,81.8,72.5,81.9"/>
</svg>
