<svg xmlns="http://www.w3.org/2000/svg" id="Instagram" viewBox="0 0 94 94" width="94" height="94"><style>.st0{fill:#f7edee}</style><path id="instagram-instagram" d="M74.6 51.5h-6.2c.5 1.8.7 3.6.7 5.5 0 12.2-9.9 22.1-22.1 22.1S24.9 69.2 24.9 57c0-1.9.3-3.8.7-5.5h-6.2v30.3c0 1.5 1.2 2.8 2.8 2.8h49.6c1.5 0 2.8-1.2 2.8-2.8V51.5zm0-19.3c0-1.5-1.2-2.8-2.8-2.8h-8.3c-1.5 0-2.8 1.2-2.8 2.8v8.3c0 1.5 1.2 2.8 2.8 2.8h8.3c1.5 0 2.8-1.2 2.8-2.8v-8.3zM47 43.2c-7.6 0-13.8 6.2-13.8 13.8S39.4 70.8 47 70.8 60.8 64.6 60.8 57 54.6 43.2 47 43.2m27.6 49.6H19.4c-4.6 0-8.3-3.7-8.3-8.3V29.4c0-4.6 3.7-8.3 8.3-8.3h55.1c4.6 0 8.3 3.7 8.3 8.3v55.1c0 4.6-3.7 8.3-8.2 8.3" class="st0"/></svg>