<?xml version="1.0" encoding="utf-8"?>
<!-- Generator: Adobe Illustrator 22.0.1, SVG Export Plug-In . SVG Version: 6.00 Build 0)  -->
<svg version="1.1" id="Instagram" xmlns="http://www.w3.org/2000/svg" xmlns:xlink="http://www.w3.org/1999/xlink" x="0px" y="0px"
	 viewBox="0 0 94 94" style="enable-background:new 0 0 94 94;" xml:space="preserve">
<style type="text/css">
	.st0{fill:#3A4556;}
</style>
<g>
	<path id="instagram-instagram" class="st0" d="M74.6,41.5h-6.2c0.5,1.8,0.7,3.6,0.7,5.5c0,12.2-9.9,22.1-22.1,22.1
		c-12.2,0-22.1-9.9-22.1-22.1c0-1.9,0.3-3.8,0.7-5.5h-6.2v30.3c0,1.5,1.2,2.8,2.8,2.8h49.6c1.5,0,2.8-1.2,2.8-2.8
		C74.6,71.8,74.6,41.5,74.6,41.5z M74.6,22.2c0-1.5-1.2-2.8-2.8-2.8h-8.3c-1.5,0-2.8,1.2-2.8,2.8v8.3c0,1.5,1.2,2.8,2.8,2.8h8.3
		c1.5,0,2.8-1.2,2.8-2.8C74.6,30.5,74.6,22.2,74.6,22.2z M47,33.2c-7.6,0-13.8,6.2-13.8,13.8c0,7.6,6.2,13.8,13.8,13.8
		c7.6,0,13.8-6.2,13.8-13.8C60.8,39.4,54.6,33.2,47,33.2 M74.6,82.8H19.4c-4.6,0-8.3-3.7-8.3-8.3V19.4c0-4.6,3.7-8.3,8.3-8.3h55.1
		c4.6,0,8.3,3.7,8.3,8.3v55.1C82.8,79.1,79.1,82.8,74.6,82.8"/>
</g>
</svg>
