<?xml version="1.0" encoding="utf-8"?>
<!-- Generator: Adobe Illustrator 22.0.1, SVG Export Plug-In . SVG Version: 6.00 Build 0)  -->
<svg version="1.1" id="Linkedin" xmlns="http://www.w3.org/2000/svg" xmlns:xlink="http://www.w3.org/1999/xlink" x="0px" y="0px"
	 viewBox="0 0 90 90" style="enable-background:new 0 0 90 90;" xml:space="preserve">
<style type="text/css">
	.st0{fill:#3A4556;}
</style>
<g>
	<g id="linkedin-linkedin">
		<path class="st0" d="M10.1,32.7h14.9v47.8H10.1V32.7z M17.5,9c4.8,0,8.6,3.9,8.6,8.6c0,4.8-3.9,8.6-8.6,8.6
			c-4.8,0-8.6-3.9-8.6-8.6C8.9,12.8,12.7,9,17.5,9"/>
		<path class="st0" d="M34.3,32.7h14.2v6.5h0.2c2-3.8,6.8-7.7,14.1-7.7c15,0,17.8,9.9,17.8,22.8v26.2H65.7V57.3
			c0-5.5-0.1-12.7-7.7-12.7c-7.7,0-8.9,6-8.9,12.3v23.6H34.3V32.7z"/>
	</g>
</g>
</svg>
