<?xml version="1.0" encoding="utf-8"?>
<!-- Generator: Adobe Illustrator 21.1.0, SVG Export Plug-In . SVG Version: 6.00 Build 0)  -->
<svg version="1.1" id="Layer_1" xmlns="http://www.w3.org/2000/svg" xmlns:xlink="http://www.w3.org/1999/xlink" x="0px" y="0px"
	 viewBox="0 0 576 576" style="enable-background:new 0 0 576 576;" xml:space="preserve">
<path d="M42.1,538.6c-16.1,33.3-41.4,34-41.4,34l237.4,0.2l18.4-91.9h-0.7c-9.3,46.6-31.1,86.8-80.5,89.2h-0.3L106,570L206.6,329
	l63.1-0.2L359.3,530l3.9,8.7c0,0,0,0,0,0.1c0.3,0.7,0.6,1.4,0.9,2c0,0,0,0,0,0c0,0,0,0,0,0c0.1,0.2,0.1,0.4,0.2,0.6
	c5.5,14.1,1,21.9-4.9,26.1c-6.1,4.3-13.6,5-13.6,5h15.9l214.2-0.1c-0.4,0-25.1-0.1-41.1-32.5c-0.1-0.3-0.2-0.4-0.3-0.6
	c0,0,0,0,0-0.1L280.1,3.5l-20.3,46L42.1,538.6z M142.5,324.2l62.7-140.3l62.3,139.9L142.5,324.2z"/>
</svg>
