<?xml version="1.0" encoding="utf-8"?>
<!-- Generator: Adobe Illustrator 21.1.0, SVG Export Plug-In . SVG Version: 6.00 Build 0)  -->
<svg version="1.1" id="Layer_1" xmlns="http://www.w3.org/2000/svg" xmlns:xlink="http://www.w3.org/1999/xlink" x="0px" y="0px"
	 viewBox="0 0 576 576" style="enable-background:new 0 0 576 576;" xml:space="preserve">
<style type="text/css">
	.st0{fill:#3A4556;stroke:#3A4556;stroke-width:5;stroke-miterlimit:10;}
</style>
<g>
	<polygon class="st0" points="358.9,530.2 378.1,573.1 378.2,573.1 	"/>
	<g>
		
			<rect x="23.3" y="220.1" transform="matrix(0.4077 -0.9131 0.9131 0.4077 -93.9105 300.3317)" class="st0" width="322.5" height="5"/>
	</g>
	<g>
		<polygon class="st0" points="135.6,329.1 138.1,324.1 331.6,323.6 331.6,328.6 		"/>
	</g>
	<g>
		<polygon class="st0" points="104.4,571.3 26.5,571 135.3,326.6 206.4,326.9 		"/>
	</g>
	<path class="st0" d="M26.5,571H0.1c0,0,25.4-0.7,41.5-34.1L26.5,571z"/>
	<g>
		<polygon class="st0" points="279.6,3.1 202,177.9 358.9,530.2 378.1,572.8 378.1,572.8 379.1,572.9 551.4,573.6 545.2,562.4 		"/>
	</g>
	<path class="st0" d="M255.1,479.9c-9.6,48.1-32.6,86.8-85.5,86.8v4.8l67.8,0.4l18.4-92L255.1,479.9L255.1,479.9z"/>
	<g>
		
			<rect x="160" y="503.7" transform="matrix(3.852603e-03 -1 1 3.852603e-03 -409.5895 729.3358)" class="st0" width="2.5" height="133.1"/>
	</g>
	<path class="st0" d="M551.4,573.6c15.1,0,24.5,0,24.5,0s-25.3-0.7-41.5-34C534.4,539.7,545.9,565.6,551.4,573.6z"/>
	<path class="st0" d="M545.9,573.7"/>
	<path class="st0" d="M380.3,572.9c-15.1,0-34.8,0-34.8,0s31.6-2.8,17.3-34C362.8,538.9,385.8,564.9,380.3,572.9z"/>
	<g>
		<polygon class="st0" points="28,571 30.4,566.1 223.9,566.9 224,571.9 		"/>
	</g>
</g>
</svg>
