<svg xmlns="http://www.w3.org/2000/svg" id="Layer_1" viewBox="0 0 576 576" width="576" height="576"><style>.st0,.st1{fill:#3a4556}.st1{stroke:#3a4556;stroke-width:7.9081;stroke-miterlimit:10}</style><path d="M358.1 526.5l18.6 41.9h.2z" class="st0"/><path d="M383 572l-8.8-.1-19.7-43.8 7.2-3.2z" class="st0"/><path d="M30.6 223.9h314.7v4.8H30.6z" class="st0" transform="rotate(-65.94 187.909 226.367)"/><path d="M26.6 220h322.6v12.7H26.6z" class="st0" transform="rotate(-65.94 187.929 226.373)"/><path d="M140.2 330.3l2.4-4.8 188.8-.5.1 4.8z" class="st0"/><path d="M133.8 334.3l6.4-12.7 195.2-.6v12.8z" class="st0"/><path d="M109.8 566.6l-76-.3 106.1-238.4 69.4.3z" class="st0"/><path d="M112.4 570.6l-84.7-.3L137.3 324l77.9.3-102.8 246.3zm-72.6-8.2l67.3.3 96.3-230.5-60.9-.3L39.8 562.4z" class="st0"/><path d="M52.1 534.8l-15.8 35.5H8V567c9 0 22.5-5.8 36.9-35.6l7.2 3.4zM280.7 12.2L205 182.8l153.1 343.7 18.6 41.7h1.1l168.1.7-6.1-11z" class="st0"/><path d="M381 572.1l171.5.8-9.2-16.8L280.6 2.8l-79.9 180.1 147.2 330.4 17 19.2s.2.2.4.5l-3.6-8-152.4-342.2 71.5-161.1 255.4 537.9 2.9 5.3-155.5-.7c.2 2.4-.4 4.5-1.5 6.2l-1.1 1.7zM258 477c-9.4 46.9-33 85.1-84.6 85.1v4.7l66.1.3L258 477z" class="st0"/><path d="M259 474l-16.2 97.2-73.3-.4v-12.6h4c42.5 0 73.6-29.3 84.6-84.2m-60.6 89l38.8.2 7.4-37c-3 5.1-6.2 9.6-9.8 13.8-9.8 11.4-22 19.1-36.4 23z" class="st0"/><path d="M164 500.7h2.4v129.9H164z" class="st0" transform="rotate(-89.779 165.211 565.611)"/><path d="M160 496.7h10.3v137.8H160z" class="st0" transform="rotate(-89.779 165.211 565.611)"/><path d="M545.9 568.9h23.9s-24.7-.6-40.5-33.2c0 .1 11.2 25.4 16.6 33.2z" class="st0"/><path d="M569.8 572.9h-26l-1.2-1.7c-5.6-8.1-16.5-32.7-16.9-33.8l7.2-3.3c14.4 29.7 33.1 34.9 37 34.9l-.1 3.9zM548 565h.3c-.2-.1-.4-.3-.6-.4.2.1.2.2.3.4zm-172.3-18.5c-4.3-6.3-9-11.9-10.4-13.5l14 31.3h4.4c-.3-4.5-2.9-10.3-8-17.8zm-27.9-33.3l-.6-.7 11.1 24.2-3.8-8.6-6.7-14.9z" class="st0"/><path d="M382.2 570.5l-1.1 1.7H379c-14.7 0-38.9-.2-38.9-.2v-4c.1 0 16.8.2 21-7 2.7-4.6 1-16.2-2.7-24.3l-3.8-8.6-6.6-14.9 17 19.2s.2.2.4.5l14 31.3h4.4c.1 2.5-.5 4.6-1.6 6.3zm-347-4.2l2.3-4.8 188.9.9v4.8z" class="st0"/><path d="M230.4 571.2l-201.6-1 6.3-12.6 195.2.8z" class="st0"/></svg>