<?xml version="1.0" encoding="utf-8"?>
<!-- Generator: Adobe Illustrator 22.0.1, SVG Export Plug-In . SVG Version: 6.00 Build 0)  -->
<svg version="1.1" id="Layer_1" xmlns="http://www.w3.org/2000/svg" xmlns:xlink="http://www.w3.org/1999/xlink" x="0px" y="0px"
	 viewBox="0 0 576 576" style="enable-background:new 0 0 576 576;" xml:space="preserve">
<style type="text/css">
	.st0{fill:#F7EDEE;}
	.st1{fill:#F7EDEE;stroke:#3A4556;stroke-width:7.9081;stroke-miterlimit:10;}
</style>
<g>
	<polygon class="st0" points="358.1,526.5 376.7,568.4 376.9,568.4 	"/>
	<polygon class="st0" points="383,572 374.2,571.9 354.5,528.1 361.7,524.9 	"/>
</g>
<g>
	<g>
		
			<rect x="30.5" y="223.9" transform="matrix(0.4077 -0.9131 0.9131 0.4077 -95.368 305.5789)" class="st0" width="314.7" height="4.8"/>
		
			<rect x="26.6" y="220" transform="matrix(0.4077 -0.9131 0.9131 0.4077 -95.4297 305.6597)" class="st0" width="322.6" height="12.7"/>
	</g>
</g>
<g>
	<g>
		<polygon class="st0" points="140.2,330.3 142.6,325.5 331.4,325 331.5,329.8 		"/>
		<polygon class="st0" points="133.8,334.3 140.2,321.6 335.4,321 335.4,333.8 		"/>
	</g>
</g>
<g>
	<g>
		<polygon class="st0" points="109.8,566.6 33.8,566.3 139.9,327.9 209.3,328.2 		"/>
		<path class="st0" d="M112.4,570.6l-84.7-0.3L137.3,324l77.9,0.3L112.4,570.6z M39.8,562.4l67.3,0.3l96.3-230.5l-60.9-0.3
			L39.8,562.4z"/>
	</g>
</g>
<g>
	<path class="st0" d="M52.1,534.8l-15.8,35.5H8V567c9,0,22.5-5.8,36.9-35.6L52.1,534.8z"/>
</g>
<g>
	<g>
		<polygon class="st0" points="280.7,12.2 205,182.8 358.1,526.5 376.7,568.2 376.7,568.2 377.8,568.2 545.9,568.9 539.8,557.9 		
			"/>
		<path class="st0" d="M381,572.1l171.5,0.8l-9.2-16.8L280.6,2.8l-79.9,180.1l147.2,330.4l17,19.2c0,0,0.2,0.2,0.4,0.5l-3.6-8
			L209.3,182.8l71.5-161.1l255.4,537.9l2.9,5.3l-155.5-0.7c0.2,2.4-0.4,4.5-1.5,6.2L381,572.1z"/>
	</g>
</g>
<g>
	<path class="st0" d="M258,477c-9.4,46.9-33,85.1-84.6,85.1v4.7l66.1,0.3L258,477L258,477z"/>
	<path class="st0" d="M259,474l-16.2,97.2l-73.3-0.4v-12.6h4c42.5,0,73.6-29.3,84.6-84.2 M197.5,563l38.8,0.2l7.4-37
		c-3,5.1-6.2,9.6-9.8,13.8C224.1,551.4,211.9,559.1,197.5,563z"/>
</g>
<g>
	<g>
		
			<rect x="164.1" y="500.7" transform="matrix(3.852632e-03 -1 1 3.852632e-03 -401.0075 728.6976)" class="st0" width="2.4" height="129.9"/>
		
			<rect x="160.1" y="496.8" transform="matrix(3.862574e-03 -1 1 3.862574e-03 -401.1092 728.6913)" class="st0" width="10.3" height="137.8"/>
	</g>
</g>
<g>
	<path class="st0" d="M545.9,568.9c14.7,0,23.9,0,23.9,0s-24.7-0.6-40.5-33.2C529.3,535.8,540.5,561.1,545.9,568.9z"/>
	<path class="st0" d="M569.8,572.9c0,0-9.2,0-23.9,0h-2.1l-1.2-1.7c-5.6-8.1-16.5-32.7-16.9-33.8l7.2-3.3
		c14.4,29.7,33.1,34.9,37,34.9L569.8,572.9z M548,565c0.1,0,0.2,0,0.3,0c-0.2-0.1-0.4-0.3-0.6-0.4C547.9,564.7,547.9,564.8,548,565z
		"/>
</g>
<g>
	<path class="st1" d="M574.6,569"/>
</g>
<g>
	<path class="st1" d="M540.5,569"/>
</g>
<g>
	<path class="st0" d="M375.7,546.5c-4.3-6.3-9-11.9-10.4-13.5l14,31.3h4.4C383.4,559.8,380.8,554,375.7,546.5z M347.8,513.2
		l-0.6-0.7l11.1,24.2l-3.8-8.6L347.8,513.2z"/>
	<path class="st0" d="M382.2,570.5l-1.1,1.7l0,0H379c-14.7,0-38.9-0.2-38.9-0.2v-4c0.1,0,16.8,0.2,21-7c2.7-4.6,1-16.2-2.7-24.3
		l-3.8-8.6l-6.6-14.9l17,19.2c0,0,0.2,0.2,0.4,0.5l14,31.3h4.4C383.9,566.7,383.3,568.8,382.2,570.5z"/>
</g>
<g>
	<g>
		<polygon class="st0" points="35.2,566.3 37.5,561.5 226.4,562.4 226.4,567.2 		"/>
		<polygon class="st0" points="230.4,571.2 28.8,570.2 35.1,557.6 230.3,558.4 		"/>
	</g>
</g>
</svg>
