<?xml version="1.0" encoding="utf-8"?>
<!-- Generator: Adobe Illustrator 21.1.0, SVG Export Plug-In . SVG Version: 6.00 Build 0)  -->
<svg version="1.1" id="Layer_1" xmlns="http://www.w3.org/2000/svg" xmlns:xlink="http://www.w3.org/1999/xlink" x="0px" y="0px"
	 viewBox="0 0 46.8 77.8" style="enable-background:new 0 0 46.8 77.8;" xml:space="preserve">
<g>
	<g>
		<g>
			<path d="M40.4,38.9c0,0.4-0.1,0.7-0.4,1l-31.1,32c-0.5,0.6-1.4,0.6-2,0c-0.6-0.5-0.6-1.4,0-2l31.1-32c0.5-0.6,1.4-0.6,2,0
				C40.3,38.2,40.4,38.5,40.4,38.9z"/>
			<path d="M42.7,38.9c0,1-0.4,1.9-1.1,2.6l-31.1,32c-1.3,1.4-3.7,1.4-5.1,0c-1.5-1.4-1.5-3.8-0.1-5.3l31.1-32
				c0.7-0.7,1.6-1.1,2.6-1.1s1.9,0.4,2.6,1.1C42.3,36.9,42.7,37.9,42.7,38.9z"/>
		</g>
	</g>
	<g>
		<g>
			<path d="M40.4,38.9c0,0.4-0.1,0.7-0.4,1c-0.6,0.5-1.4,0.5-2,0L6.9,7.9c-0.5-0.6-0.5-1.4,0-2c0.6-0.5,1.4-0.5,2,0l31.1,32
				C40.3,38.2,40.4,38.6,40.4,38.9z"/>
			<path d="M42.7,38.9c0,1-0.4,2-1.1,2.7c-1.5,1.4-3.8,1.4-5.3-0.1L5.2,9.5C3.8,8,3.8,5.7,5.3,4.2c0.7-0.7,1.6-1.1,2.6-1
				c1,0,1.9,0.4,2.6,1.1l31.1,32C42.4,37,42.7,37.9,42.7,38.9z"/>
		</g>
	</g>
</g>
</svg>
