<?xml version="1.0" encoding="utf-8"?>
<!-- Generator: Adobe Illustrator 21.1.0, SVG Export Plug-In . SVG Version: 6.00 Build 0)  -->
<svg version="1.1" id="Layer_1" xmlns="http://www.w3.org/2000/svg" xmlns:xlink="http://www.w3.org/1999/xlink" x="0px" y="0px"
	 viewBox="0 0 47 77.8" style="enable-background:new 0 0 47 77.8;" xml:space="preserve">
<g>
	<g>
		<g>
			<path d="M6.6,38.9c0-0.4,0.1-0.7,0.4-1l31.1-32c0.5-0.6,1.4-0.6,2,0c0.6,0.5,0.6,1.4,0,2L9,39.9c-0.5,0.6-1.4,0.6-2,0
				C6.7,39.6,6.6,39.3,6.6,38.9z"/>
			<path d="M4.3,38.9c0-1,0.4-1.9,1.1-2.6l31.1-32c1.3-1.4,3.7-1.4,5.1,0c1.5,1.4,1.5,3.8,0.1,5.3l-31.1,32C9.9,42.3,9,42.7,8,42.7
				s-1.9-0.4-2.6-1.1C4.7,40.9,4.3,39.9,4.3,38.9z"/>
		</g>
	</g>
	<g>
		<g>
			<path d="M6.6,38.9c0-0.4,0.1-0.7,0.4-1c0.6-0.5,1.4-0.5,2,0l31.1,32c0.5,0.6,0.5,1.4,0,2c-0.6,0.5-1.4,0.5-2,0L7,39.9
				C6.7,39.6,6.6,39.2,6.6,38.9z"/>
			<path d="M4.3,38.9c0-1,0.4-2,1.1-2.7c1.5-1.4,3.8-1.4,5.3,0.1l31.1,32c1.4,1.5,1.4,3.8-0.1,5.3c-0.7,0.7-1.6,1.1-2.6,1
				c-1,0-1.9-0.4-2.6-1.1l-31.1-32C4.6,40.8,4.3,39.9,4.3,38.9z"/>
		</g>
	</g>
</g>
</svg>
