<svg xmlns="http://www.w3.org/2000/svg" id="Layer_1" viewBox="0 0 72 73.5" width="72" height="73.5"><style>.st0{fill:#3a4556}</style><path d="M39.8 54.5c0 .8-.2 1.4-.6 2-.1.2-.3.4-.5.5-.2.2-.4.4-.7.5-.1.1-.2.1-.3.2-.2.1-.4.2-.7.3-.1 0-.2.1-.4.1s-.5.1-.8.1-.5 0-.8-.1c-.1 0-.2 0-.3-.1h-.1c-.1 0-.2-.1-.3-.1-.4-.2-.8-.5-1.2-.8l-.1-.4L.7 20.2c-.3-.3-.6-.6-.7-1h10.3L36 49.3l1.7 1.6 1 1c.3.3.6.7.8 1.2.2.4.3.9.3 1.4z" class="st0"/><path d="M61.7 19.2L36 49.3l-1.7 1.6-.9.9c-.4.4-.7.8-.9 1.3-.5 1.2-.3 2.5.4 3.6.1.2.2.3.3.4.4.4.8.6 1.3.8.1.1.2.1.3.1h.1c.1 0 .2 0 .3.1.2 0 .5.1.8.1s.5 0 .8-.1c.1 0 .2-.1.4-.1.2-.1.5-.2.7-.3.1-.1.2-.1.3-.2.2-.1.4-.3.6-.5l.6-.5 32.1-36.4c.3-.3.5-.6.7-1H61.7z" class="st0"/></svg>