<?xml version="1.0" encoding="utf-8"?>
<!-- Generator: Adobe Illustrator 22.0.1, SVG Export Plug-In . SVG Version: 6.00 Build 0)  -->
<svg version="1.1" id="Layer_1" xmlns="http://www.w3.org/2000/svg" xmlns:xlink="http://www.w3.org/1999/xlink" x="0px" y="0px"
	 viewBox="0 0 72 73.5" style="enable-background:new 0 0 72 73.5;" xml:space="preserve">
<style type="text/css">
	.st0{fill:#3A4556;}
</style>
<g>
	<g>
		<g>
			<path class="st0" d="M39.8,54.5c0,0.8-0.2,1.4-0.6,2l0,0c-0.1,0.2-0.3,0.4-0.5,0.5c-0.2,0.2-0.4,0.4-0.7,0.5
				c-0.1,0.1-0.2,0.1-0.3,0.2c-0.2,0.1-0.4,0.2-0.7,0.3c-0.1,0-0.2,0.1-0.4,0.1c-0.2,0-0.5,0.1-0.8,0.1s-0.5,0-0.8-0.1
				c-0.1,0-0.2,0-0.3-0.1c0,0,0,0-0.1,0c-0.1,0-0.2-0.1-0.3-0.1c-0.4-0.2-0.8-0.5-1.2-0.8L33,56.7v0L0.7,20.2
				c-0.3-0.3-0.6-0.6-0.7-1h10.3L36,49.3l1.7,1.6l1,1c0.3,0.3,0.6,0.7,0.8,1.2C39.7,53.5,39.8,54,39.8,54.5z"/>
		</g>
	</g>
	<g>
		<g>
			<path class="st0" d="M61.7,19.2L36,49.3l-1.7,1.6l-0.9,0.9c-0.4,0.4-0.7,0.8-0.9,1.3c-0.5,1.2-0.3,2.5,0.4,3.6v0
				c0.1,0.2,0.2,0.3,0.3,0.4c0.4,0.4,0.8,0.6,1.3,0.8c0.1,0.1,0.2,0.1,0.3,0.1c0,0,0.1,0,0.1,0c0.1,0,0.2,0,0.3,0.1
				c0.2,0,0.5,0.1,0.8,0.1s0.5,0,0.8-0.1c0.1,0,0.2-0.1,0.4-0.1c0.2-0.1,0.5-0.2,0.7-0.3c0.1-0.1,0.2-0.1,0.3-0.2
				c0.2-0.1,0.4-0.3,0.6-0.5l0.6-0.5l0,0l32.1-36.4c0.3-0.3,0.5-0.6,0.7-1H61.7z"/>
		</g>
	</g>
</g>
</svg>
