<?xml version="1.0" encoding="utf-8"?>
<!-- Generator: Adobe Illustrator 21.1.0, SVG Export Plug-In . SVG Version: 6.00 Build 0)  -->
<svg version="1.1" id="Layer_1" xmlns="http://www.w3.org/2000/svg" xmlns:xlink="http://www.w3.org/1999/xlink" x="0px" y="0px"
	 viewBox="0 0 72 73.5" style="enable-background:new 0 0 72 73.5;" xml:space="preserve">
<g>
	<g>
		<g>
			<path d="M36,55.9c-0.4,0-0.7-0.1-1-0.4L3,24.4c-0.6-0.5-0.6-1.4,0-2c0.5-0.6,1.4-0.6,2,0l32,31.1c0.6,0.5,0.6,1.4,0,2
				C36.7,55.8,36.4,55.9,36,55.9z"/>
			<path d="M36,58.2c-1,0-1.9-0.4-2.6-1.1L1.4,26c-1.4-1.3-1.4-3.7,0-5.1c1.4-1.5,3.8-1.5,5.3-0.1l32,31.1c0.7,0.7,1.1,1.6,1.1,2.6
				s-0.4,1.9-1.1,2.6C38,57.8,37,58.2,36,58.2z"/>
		</g>
	</g>
	<g>
		<g>
			<path d="M36,55.9c-0.4,0-0.7-0.1-1-0.4c-0.5-0.6-0.5-1.4,0-2l32-31.1c0.6-0.5,1.4-0.5,2,0c0.5,0.6,0.5,1.4,0,2L37,55.5
				C36.7,55.8,36.3,55.9,36,55.9z"/>
			<path d="M36,58.2c-1,0-2-0.4-2.7-1.1c-1.4-1.5-1.4-3.8,0.1-5.3l32-31.1c1.5-1.4,3.8-1.4,5.3,0.1c0.7,0.7,1.1,1.6,1,2.6
				c0,1-0.4,1.9-1.1,2.6l-32,31.1C37.9,57.9,37,58.2,36,58.2z"/>
		</g>
	</g>
</g>
</svg>
