<?xml version="1.0" encoding="utf-8"?>
<!-- Generator: Adobe Illustrator 21.1.0, SVG Export Plug-In . SVG Version: 6.00 Build 0)  -->
<svg version="1.1" id="Layer_1" xmlns="http://www.w3.org/2000/svg" xmlns:xlink="http://www.w3.org/1999/xlink" x="0px" y="0px"
	 viewBox="0 0 130.3 130" style="enable-background:new 0 0 130.3 130;" xml:space="preserve">
<g>
	<path d="M116.5,126.7L3.5,14.1C0.7,11.4,0.6,6.7,3.4,3.7s7.5-3.3,10.3-0.6l112.8,112.5c3,2.7,2.9,7.3,0.2,10.4
		C123.9,129,119.4,129.4,116.5,126.7z"/>
</g>
<g>
	<path d="M3.4,126.2c-2.7-3-2.8-7.6,0.2-10.4L116.4,3.3c2.9-2.7,7.6-2.4,10.3,0.6c2.7,3,2.7,7.6-0.2,10.4l-113,112.6
		C10.7,129.5,6.1,129.1,3.4,126.2z"/>
</g>
</svg>
