<?xml version="1.0" encoding="utf-8"?>
<!-- Generator: Adobe Illustrator 21.1.0, SVG Export Plug-In . SVG Version: 6.00 Build 0)  -->
<svg version="1.1" id="Layer_1" xmlns="http://www.w3.org/2000/svg" xmlns:xlink="http://www.w3.org/1999/xlink" x="0px" y="0px"
	 viewBox="0 0 185.7 185.7" style="enable-background:new 0 0 185.7 185.7;" xml:space="preserve">
<g>
	<path d="M144.2,154.6L31.2,42c-2.8-2.7-2.9-7.4-0.1-10.4s7.5-3.3,10.3-0.6l112.8,112.5c3,2.7,2.9,7.3,0.2,10.4
		C151.6,156.9,147.1,157.2,144.2,154.6z"/>
</g>
<g>
	<path d="M31.1,154.1c-2.7-3-2.8-7.6,0.2-10.4L144.1,31.1c2.9-2.7,7.6-2.4,10.3,0.6c2.7,3,2.7,7.6-0.2,10.4l-113,112.6
		C38.4,157.4,33.8,157,31.1,154.1z"/>
</g>
</svg>
