<?xml version="1.0" encoding="utf-8"?>
<!-- Generator: Adobe Illustrator 21.1.0, SVG Export Plug-In . SVG Version: 6.00 Build 0)  -->
<svg version="1.1" id="Layer_1" xmlns="http://www.w3.org/2000/svg" xmlns:xlink="http://www.w3.org/1999/xlink" x="0px" y="0px"
	 viewBox="0 0 130.3 130.3" style="enable-background:new 0 0 130.3 130.3;" xml:space="preserve">
<g>
	<path d="M124.4,25.2H6c-3.3,0-6-4.5-6-10s2.7-10,6-10h118.3c3.3,0,6,4.5,6,10S127.7,25.2,124.4,25.2z"/>
</g>
<g>
	<path d="M124.4,75.2H6c-3.3,0-6-4.5-6-10s2.7-10,6-10h118.3c3.3,0,6,4.5,6,10S127.7,75.2,124.4,75.2z"/>
</g>
<g>
	<path d="M124.4,125.2H6c-3.3,0-6-4.5-6-10s2.7-10,6-10h118.3c3.3,0,6,4.5,6,10S127.7,125.2,124.4,125.2z"/>
</g>
</svg>
